<svg xmlns="http://www.w3.org/2000/svg" width="69.528" height="20.953" viewBox="0 0 69.528 20.953">
  <g id="Amazon" style="mix-blend-mode: normal;isolation: isolate">
    <g id="Group_45612" data-name="Group 45612" transform="translate(9.782 12.643)">
      <path id="Path_27834" data-name="Path 27834" d="M237.007,320.868a26.461,26.461,0,0,1-14.94,4.567,27.035,27.035,0,0,1-18.25-6.962c-.378-.341-.041-.808.414-.544a36.73,36.73,0,0,0,18.26,4.845,36.329,36.329,0,0,0,13.928-2.85C237.1,319.635,237.675,320.375,237.007,320.868Z" transform="translate(-203.654 -317.125)" fill="#aa70e0" fill-rule="evenodd"/>
      <path id="Path_27835" data-name="Path 27835" d="M331.533,316.7c-.517-.662-3.416-.314-4.718-.158-.394.047-.455-.3-.1-.547,2.312-1.624,6.1-1.155,6.542-.612s-.116,4.348-2.284,6.16c-.333.279-.65.13-.5-.238C330.958,320.088,332.05,317.361,331.533,316.7Z" transform="translate(-296.499 -314.875)" fill="#aa70e0" fill-rule="evenodd"/>
    </g>
    <path id="Path_27836" data-name="Path 27836" d="M326.977,266.33v-1.578a.39.39,0,0,1,.4-.4h7.073a.4.4,0,0,1,.408.4V266.1a2.21,2.21,0,0,1-.532.993l-3.664,5.231a7.843,7.843,0,0,1,4.034.866.721.721,0,0,1,.375.616v1.684c0,.232-.254.5-.521.361a8.147,8.147,0,0,0-7.474.014c-.246.131-.5-.134-.5-.366v-1.6a1.9,1.9,0,0,1,.263-1.085l4.245-6.09h-3.7A.393.393,0,0,1,326.977,266.33Z" transform="translate(-286.788 -264.041)" fill="#aa70e0" fill-rule="evenodd"/>
    <path id="Path_27837" data-name="Path 27837" d="M214.667,275.558h-2.152a.406.406,0,0,1-.385-.364V264.149a.406.406,0,0,1,.415-.4h2a.406.406,0,0,1,.392.371v1.442h.04a2.956,2.956,0,0,1,5.624,0,3.178,3.178,0,0,1,5.464-.837c.683.93.542,2.278.542,3.463v6.97a.406.406,0,0,1-.415.4h-2.149a.4.4,0,0,1-.386-.4v-5.855a14.125,14.125,0,0,0-.06-2.069,1.122,1.122,0,0,0-1.265-.953,1.427,1.427,0,0,0-1.286.907,6.681,6.681,0,0,0-.2,2.115v5.854a.406.406,0,0,1-.415.4h-2.15a.4.4,0,0,1-.386-.4l0-5.855c0-1.232.2-3.045-1.326-3.045-1.547,0-1.487,1.766-1.487,3.045v5.854A.406.406,0,0,1,214.667,275.558Z" transform="translate(-200.279 -263.412)" fill="#aa70e0" fill-rule="evenodd"/>
    <path id="Path_27838" data-name="Path 27838" d="M370.468,263.519c3.194,0,4.921,2.742,4.921,6.229,0,3.37-1.908,6.043-4.921,6.043-3.133,0-4.841-2.743-4.841-6.159C365.627,266.192,367.355,263.519,370.468,263.519Zm.02,2.254c-1.587,0-1.687,2.161-1.687,3.509s-.02,4.23,1.667,4.23c1.668,0,1.748-2.324,1.748-3.742a10.209,10.209,0,0,0-.321-2.928A1.348,1.348,0,0,0,370.488,265.773Z" transform="translate(-316.308 -263.412)" fill="#aa70e0" fill-rule="evenodd"/>
    <path id="Path_27839" data-name="Path 27839" d="M414.744,275.558H412.6a.4.4,0,0,1-.386-.4l0-11.049a.408.408,0,0,1,.413-.361h2a.409.409,0,0,1,.382.309v1.689h.041c.6-1.511,1.446-2.231,2.932-2.231a2.822,2.822,0,0,1,2.511,1.3,7.028,7.028,0,0,1,.562,3.44v6.95a.408.408,0,0,1-.412.348H418.48a.406.406,0,0,1-.383-.348v-6c0-1.209.141-2.975-1.346-2.975a1.407,1.407,0,0,0-1.245.883,4.907,4.907,0,0,0-.342,2.092v5.947A.412.412,0,0,1,414.744,275.558Z" transform="translate(-351.521 -263.412)" fill="#aa70e0" fill-rule="evenodd"/>
    <path id="Path_27840" data-name="Path 27840" d="M285.489,269.952a4.225,4.225,0,0,1-.4,2.283,1.748,1.748,0,0,1-1.49.978c-.825,0-1.309-.629-1.309-1.561,0-1.833,1.644-2.166,3.2-2.166Zm2.169,5.247a.446.446,0,0,1-.508.05,5.258,5.258,0,0,1-1.233-1.434,4.266,4.266,0,0,1-3.548,1.564,3.054,3.054,0,0,1-3.221-3.354,3.655,3.655,0,0,1,2.295-3.517,14.879,14.879,0,0,1,4.046-.745v-.279a2.754,2.754,0,0,0-.262-1.561,1.438,1.438,0,0,0-1.208-.559,1.639,1.639,0,0,0-1.73,1.292.454.454,0,0,1-.374.4l-2.086-.226a.379.379,0,0,1-.321-.45c.479-2.531,2.765-3.3,4.812-3.3a4.882,4.882,0,0,1,3.241,1.072c1.047.978.946,2.283.946,3.7v3.353a2.939,2.939,0,0,0,.812,1.994.406.406,0,0,1-.007.572c-.439.368-1.221,1.047-1.65,1.429Z" transform="translate(-250.938 -263.081)" fill="#aa70e0" fill-rule="evenodd"/>
    <path id="Path_27841" data-name="Path 27841" d="M169.921,269.952a4.222,4.222,0,0,1-.4,2.283,1.747,1.747,0,0,1-1.49.978c-.825,0-1.308-.629-1.308-1.561,0-1.833,1.644-2.166,3.2-2.166Zm2.17,5.247a.446.446,0,0,1-.508.05,5.255,5.255,0,0,1-1.234-1.434,4.265,4.265,0,0,1-3.548,1.564,3.054,3.054,0,0,1-3.221-3.354,3.655,3.655,0,0,1,2.295-3.517,14.878,14.878,0,0,1,4.046-.745v-.279a2.758,2.758,0,0,0-.261-1.561,1.438,1.438,0,0,0-1.208-.559,1.638,1.638,0,0,0-1.73,1.292.455.455,0,0,1-.374.4l-2.086-.226a.378.378,0,0,1-.321-.45c.479-2.531,2.764-3.3,4.812-3.3a4.882,4.882,0,0,1,3.241,1.072c1.047.978.946,2.283.946,3.7v3.353a2.94,2.94,0,0,0,.812,1.994.406.406,0,0,1-.007.572c-.44.368-1.221,1.047-1.65,1.429Z" transform="translate(-163.58 -263.081)" fill="#aa70e0" fill-rule="evenodd"/>
  </g>
</svg>
