<svg xmlns="http://www.w3.org/2000/svg" width="98.912" height="12.726" viewBox="0 0 98.912 12.726">
  <g id="Aptiv" style="mix-blend-mode: normal;isolation: isolate">
    <g id="Header-Dark">
      <g id="Dark">
        <g id="Group-4">
          <g id="Group-6">
            <g id="aptiv-logo">
              <path id="Path_88033" data-name="Path 88033" d="M96.57,6a2.314,2.314,0,1,0,2.343,2.314A2.328,2.328,0,0,0,96.57,6ZM4.685,8.314a2.328,2.328,0,0,1-2.342,2.314A2.314,2.314,0,1,1,2.343,6,2.328,2.328,0,0,1,4.685,8.314Z" transform="translate(0 -2.529)" fill="#aa70e0" fill-rule="evenodd"/>
              <path id="Path_88034" data-name="Path 88034" d="M83.674,0h3.417L89.46,9.589h.772L92.584,0h3.347L92.439,12.726H87.184L83.674,0ZM72.816,12.726H76.08V0H72.816V12.726Zm-7.624-9.8H61.436v9.8H58.171v-9.8H54.433V0H65.191V2.923ZM43.272,5.614c1.281,0,1.772-.463,1.772-1.372s-.491-1.355-1.772-1.355H40.955V5.614ZM43.693,0c2.966,0,4.685,1.533,4.685,4.188,0,2.691-1.72,4.26-4.685,4.26H40.955v4.278H37.691V0ZM23.773,6.826h2.791l-1-3.689h-.772L23.773,6.826Zm7.669,5.9H28.2l-.912-3.3H23.071l-.894,3.3H19L22.756,0h4.931l3.756,12.726Z" transform="translate(-8.01)" fill="#aa70e0" fill-rule="evenodd"/>
            </g>
          </g>
        </g>
      </g>
    </g>
  </g>
</svg>
