<svg xmlns="http://www.w3.org/2000/svg" width="89.165" height="19.592" viewBox="0 0 89.165 19.592">
  <g id="Bosch" transform="translate(-321.126 -392.81)" style="mix-blend-mode: normal;isolation: isolate">
    <path id="Path_27828" data-name="Path 27828" d="M304.428,220.321a3.859,3.859,0,0,1-4.053,3.627h-6.639v-12.99h6.088c2.34,0,4.034,1.17,4.034,3.569a2.817,2.817,0,0,1-1.788,2.667,3.2,3.2,0,0,1,2.358,3.127m-3.88-5.429a1.169,1.169,0,0,0-1.237-1.229h-2.379v2.418h2.322a1.218,1.218,0,0,0,1.294-1.189m.418,5.065c0-.748-.552-1.267-1.712-1.267h-2.322v2.552h2.379c.969,0,1.655-.345,1.655-1.285" transform="translate(57.028 185.163)" fill="#aa70e0" fill-rule="evenodd"/>
    <path id="Path_27829" data-name="Path 27829" d="M392.341,215.392c0,3.818-2.189,6.811-5.975,6.811-3.767,0-5.974-2.993-5.974-6.811,0-3.8,2.207-6.811,5.974-6.811,3.787,0,5.975,3.013,5.975,6.811m-3.2,0c0-2.034-.932-3.684-2.778-3.684s-2.759,1.65-2.759,3.684c0,2.053.913,3.7,2.759,3.7s2.778-1.651,2.778-3.7" transform="translate(-17.748 187.214)" fill="#aa70e0" fill-rule="evenodd"/>
    <path id="Path_27830" data-name="Path 27830" d="M483.315,217.963c0,2.86-2.588,4.241-5.023,4.241a6.345,6.345,0,0,1-5.4-2.437l2.072-2.034a4.089,4.089,0,0,0,3.292,1.67c1.046,0,1.75-.518,1.75-1.286,0-.825-.622-1.082-2.322-1.439l-.457-.1c-2.047-.43-3.729-1.592-3.729-3.914,0-2.552,2.074-4.087,4.813-4.087a6.074,6.074,0,0,1,4.739,2.034l-2.018,2a3.705,3.705,0,0,0-2.663-1.209c-.741,0-1.58.345-1.58,1.209,0,.787.873,1.072,1.979,1.3l.458.1c1.852.389,4.09.959,4.09,3.952" transform="translate(-97.565 187.214)" fill="#aa70e0" fill-rule="evenodd"/>
    <path id="Path_27831" data-name="Path 27831" d="M568.886,219.506c-1.331,1.918-2.567,2.82-5.136,2.82-3.654,0-6.013-3.031-6.013-6.888,0-3.665,2.131-6.716,6.051-6.716a5.552,5.552,0,0,1,5,2.82l-2.626,1.746a2.531,2.531,0,0,0-2.36-1.458c-1.445,0-2.835,1.293-2.835,3.608,0,2.593,1.5,3.78,2.93,3.78a2.5,2.5,0,0,0,2.341-1.5l2.643,1.785" transform="translate(-170.781 187.091)" fill="#aa70e0" fill-rule="evenodd"/>
    <path id="Path_27832" data-name="Path 27832" d="M660.165,223.948H656.74v-5.123H652.8v5.123H649.4v-12.99H652.8v4.778h3.938v-4.778h3.425Z" transform="translate(-249.875 185.163)" fill="#aa70e0" fill-rule="evenodd"/>
    <path id="Path_88105" data-name="Path 88105" d="M91.718,193.295,91.7,192.7l.245.4a7,7,0,0,1,1.075,3.588,6.385,6.385,0,0,1-1.075,3.449l-.245.4s.02-.666.02-.67v-6.494l0,.03-.006-.106m-7.395,4.717v-2.936h6.028v3.062H84.323ZM82.72,200a5.847,5.847,0,0,1-1.069-3.311,6.4,6.4,0,0,1,1.069-3.464l.243-.375-.02.654v6.219s0,.2,0,.2l.013.444Zm7.631-9.33V193.7H84.323v-3.029c0-.38-.128-.412-.248-.412a.408.408,0,0,0-.214.06,7.4,7.4,0,0,0-3.589,6.371,7.165,7.165,0,0,0,3.589,6.2.415.415,0,0,0,.214.059.256.256,0,0,0,.248-.243v-3.193h6.028v3.193c0,.119.032.247.411.247a.241.241,0,0,0,.129-.036,7.278,7.278,0,0,0,3.508-6.23,7.523,7.523,0,0,0-3.424-6.371.4.4,0,0,0-.214-.06.412.412,0,0,0-.411.412M81.3,202.722h0a8.375,8.375,0,0,1-2.585-6.034,8.71,8.71,0,0,1,8.7-8.7,8.374,8.374,0,0,1,6.034,2.587,8.725,8.725,0,0,1,2.5,6.114,8.546,8.546,0,0,1-8.536,8.536,8.728,8.728,0,0,1-6.114-2.5m-3.763-6.034a9.567,9.567,0,0,0,2.9,6.9,9.925,9.925,0,0,0,6.982,2.815,9.725,9.725,0,0,0,9.714-9.714,9.928,9.928,0,0,0-2.815-6.983,9.571,9.571,0,0,0-6.9-2.9,9.889,9.889,0,0,0-9.878,9.878" transform="translate(243.585 206)" fill="#aa70e0"/>
  </g>
</svg>
