<svg id="Group_3" data-name="Group 3" xmlns="http://www.w3.org/2000/svg" xmlns:xlink="http://www.w3.org/1999/xlink" width="67.836" height="67.821" viewBox="0 0 67.836 67.821">
  <defs>
    <clipPath id="clip-path">
      <rect id="Rectangle_112" data-name="Rectangle 112" width="67.836" height="67.821"/>
    </clipPath>
  </defs>
  <g id="Group_2" data-name="Group 2" clip-path="url(#clip-path)">
    <path id="Path_1" data-name="Path 1" d="M34.066,67.815A33.807,33.807,0,0,1,.663,40.379,32.848,32.848,0,0,1,8.551,11.5,33,33,0,0,1,29.07.366a31.876,31.876,0,0,1,10.776.2A2.217,2.217,0,0,1,40.56,4.84a4.122,4.122,0,0,0,.243,7.5,3.412,3.412,0,0,1,1.317.73,2.063,2.063,0,0,1,.6,1.871,8.632,8.632,0,0,0,1.085,6.595,8.345,8.345,0,0,0,8.442,3.705c1.823-.342,2.55.055,3.245,1.738a4.1,4.1,0,0,0,7.379.564,3.551,3.551,0,0,1,1.063-1.324,2.146,2.146,0,0,1,3.188,1.142,13.013,13.013,0,0,1,.525,3.051,32.785,32.785,0,0,1-3.607,19.053A33.433,33.433,0,0,1,39.9,67.3a27.646,27.646,0,0,1-5.83.517m16.58-38.073a10.953,10.953,0,0,1-4.988-1.1c-5.006-2.457-7.563-6.476-7.529-12.082a1.136,1.136,0,0,0-.568-1.076,8.288,8.288,0,0,1-2.893-10.45c.191-.418.168-.6-.326-.61a28.182,28.182,0,0,0-3.816.183A27.67,27.67,0,0,0,17.036,9.749C7.751,16.59,3.553,25.805,4.626,37.318A26.621,26.621,0,0,0,9.7,50.759c6.836,9.321,16.06,13.545,27.6,12.473a27.36,27.36,0,0,0,13.558-5.139A29.257,29.257,0,0,0,63.058,38.782a28.563,28.563,0,0,0,.386-5.19c0-.518-.16-.62-.671-.381a8.293,8.293,0,0,1-10.354-2.852,1.157,1.157,0,0,0-1.244-.621,3.446,3.446,0,0,1-.528,0" transform="translate(0 0)"/>
    <path id="Path_2" data-name="Path 2" d="M88.72,52.44a4.275,4.275,0,1,1-4.261-4.272A4.226,4.226,0,0,1,88.72,52.44" transform="translate(-58.976 -35.434)"/>
    <path id="Path_3" data-name="Path 3" d="M56.72,116.452a4.275,4.275,0,1,1-4.25-4.284,4.225,4.225,0,0,1,4.25,4.284" transform="translate(-35.436 -82.514)"/>
    <path id="Path_4" data-name="Path 4" d="M136.72,180.452a4.275,4.275,0,1,1-4.249-4.284,4.225,4.225,0,0,1,4.249,4.284" transform="translate(-94.286 -129.594)"/>
    <path id="Path_5" data-name="Path 5" d="M130.312,132.487a2.16,2.16,0,1,1,2.179-2.156,2.1,2.1,0,0,1-2.179,2.156" transform="translate(-94.287 -94.284)"/>
    <path id="Path_6" data-name="Path 6" d="M194.3,160.169a2.16,2.16,0,1,1-2.129,2.206,2.1,2.1,0,0,1,2.129-2.206" transform="translate(-141.366 -117.824)"/>
    <path id="Path_7" data-name="Path 7" d="M84.491,178.3a2.16,2.16,0,1,1-2.209-2.127,2.1,2.1,0,0,1,2.209,2.127" transform="translate(-58.977 -129.594)"/>
  </g>
</svg>
