<svg xmlns="http://www.w3.org/2000/svg" width="44.47" height="38.246" viewBox="0 0 44.47 38.246">
  <g id="Gsk" transform="translate(-0.113 -0.117)" style="mix-blend-mode: normal;isolation: isolate">
    <path id="Path_28485" data-name="Path 28485" d="M152.49,167.675c-7.041,2.69-10.61,7.178-10.61,13.338,0,4.741,2.3,10.243,6.161,14.717,4.1,4.758,9.265,7.486,14.164,7.486a15.169,15.169,0,0,0,9.169-3.255,45.039,45.039,0,0,0,9.966-10.87c4.141-6.292,5.01-10.864,5.01-13.593a8.769,8.769,0,0,0-3.762-7.659c-2.74-1.9-7.064-2.869-12.851-2.869-3.8,0-11.086.351-17.245,2.705" transform="translate(-141.767 -164.853)" fill="#aa70e0" style="mix-blend-mode: soft-light;isolation: isolate"/>
    <path id="Path_28486" data-name="Path 28486" d="M213.572,228.013c-.669,0-1.589-.173-3.044-1.748-1.89-2.085-4.079-4.741-4.079-4.741l3.346-3.147c1.965-1.848,2.517-1.965,2.675-2.006h-3.108a11.542,11.542,0,0,1-1.338,1.456l-3.579,3.345V210.627l-2.716.707c.356.474.474,1.261.474,3.03v10.9c0,2.2-.118,2.438-.354,3.068h2.911c-.2-.512-.315-.867-.315-3.068v-3.15s1.614,1.929,3.62,4.33c1.257,1.49,2.283,2.162,3.5,2.162a4.086,4.086,0,0,0,2.4-.672,1.283,1.283,0,0,1-.392.08m-16.1-6.37c-1.571-.787-3.067-1.5-3.067-2.754,0-1.063,1.139-1.537,2.322-1.537a5.3,5.3,0,0,1,3.305,1.182v-1.771a6.718,6.718,0,0,0-3.267-.825c-2.123,0-4.484,1.061-4.484,3.5,0,2.009,1.77,2.872,3.422,3.659,1.5.706,2.873,1.337,2.873,2.636s-1.378,1.571-2.48,1.571a9.334,9.334,0,0,1-3.932-1.138v1.808a9.9,9.9,0,0,0,3.855.788c2.2,0,4.839-.906,4.839-3.543,0-1.808-1.731-2.749-3.386-3.577m-7.4,5.808c-1.13-.518-2.813-.556-5.563-.772-1.279-.1-1.534-.474-1.534-.984a1.217,1.217,0,0,1,.49-.925,1.874,1.874,0,0,1,.834-.386,7.426,7.426,0,0,0,.88.052c3.068,0,4.8-1.848,4.8-4.051a4.061,4.061,0,0,0-.984-2.637,18.018,18.018,0,0,1,2.319.159v-1.576a9.074,9.074,0,0,1-2.319.236,6.521,6.521,0,0,1-1.772-.275,7.966,7.966,0,0,0-2.118-.353c-3.084,0-4.987,1.89-4.987,4.335a4.06,4.06,0,0,0,2.662,3.769,2.613,2.613,0,0,0-1.811,2.243,2.287,2.287,0,0,0,1.847,2.134c-1.772.773-3.425,2.169-2.193,3.793,1.809,2.388,8.194,2.133,10.182-.351a2.766,2.766,0,0,0-.732-4.411m-7.8-7.5a2.5,2.5,0,0,1,2.645-2.711,2.87,2.87,0,0,1,2.9,3.175,2.467,2.467,0,0,1-2.568,2.764,2.929,2.929,0,0,1-2.981-3.228m4.662,12.459c-3.615.389-6.433-2.006-3.092-3.848.767.059,1.362.141,2.6.189,2.424.1,3.189.649,3.38,1.318.288,1.007-.561,2.093-2.889,2.341" transform="translate(-175.077 -204.632)" fill="#fff" style="mix-blend-mode: soft-light;isolation: isolate"/>
  </g>
</svg>
