<svg xmlns="http://www.w3.org/2000/svg" xmlns:xlink="http://www.w3.org/1999/xlink" width="89.634" height="30.963" viewBox="0 0 89.634 30.963">
  <defs>
    <linearGradient id="linear-gradient" x1="0.281" y1="0.058" x2="0.731" y2="0.967" gradientUnits="objectBoundingBox">
      <stop offset="0" stop-color="#43eae4"/>
      <stop offset="1" stop-color="#2a8bff"/>
    </linearGradient>
  </defs>
  <g id="logo-show" transform="translate(-858 -6106)">
    <g id="Show_Logo" data-name="Show Logo" transform="translate(850.64 6101.319)">
      <g id="Group_70164" data-name="Group 70164">
        <path id="Path_88249" data-name="Path 88249" d="M53.423,22.624a8.144,8.144,0,0,1-2.749-.444,5.8,5.8,0,0,1-1.89-1.105A1.89,1.89,0,0,1,48,19.723a1.634,1.634,0,0,1,.18-.709,1.89,1.89,0,0,1,.472-.652,1,1,0,0,1,.68-.265,1.077,1.077,0,0,1,.7.265l.746.633a4.317,4.317,0,0,0,1.03.624,4.006,4.006,0,0,0,2.787.047,2.173,2.173,0,0,0,.945-.661,1.776,1.776,0,0,0,.359-1.143,1.975,1.975,0,0,0-.34-1.257,3.335,3.335,0,0,0-1.068-.888c-.453-.255-.945-.491-1.474-.727s-1.058-.482-1.6-.746a7.445,7.445,0,0,1-1.474-.945,4.3,4.3,0,0,1-1.068-1.379,4.393,4.393,0,0,1-.416-2,4.327,4.327,0,0,1,.482-2.2,4.034,4.034,0,0,1,1.323-1.436A5.669,5.669,0,0,1,52.1,5.486a8.626,8.626,0,0,1,2.012-.246,11.337,11.337,0,0,1,1.266.085,9,9,0,0,1,1.474.283,3.6,3.6,0,0,1,1.209.576,1.1,1.1,0,0,1,.482.945,2.145,2.145,0,0,1-.132.661,1.89,1.89,0,0,1-.4.661.879.879,0,0,1-.69.293,1.342,1.342,0,0,1-.727-.227,7.369,7.369,0,0,0-.945-.444,4.582,4.582,0,0,0-1.531-.227,4.318,4.318,0,0,0-1.4.2,1.89,1.89,0,0,0-.945.614,1.474,1.474,0,0,0-.3.945,1.417,1.417,0,0,0,.416,1.077,3.94,3.94,0,0,0,1.068.746c.444.217.945.435,1.464.652s1.058.472,1.6.756A7.747,7.747,0,0,1,57.5,13.875a4.469,4.469,0,0,1,1.068,1.5,5.508,5.508,0,0,1,.4,2.211,5.074,5.074,0,0,1-.718,2.787,4.5,4.5,0,0,1-1.975,1.644,6.689,6.689,0,0,1-2.853.6Z" transform="translate(-2.465 -0.18)" fill="#fff"/>
        <path id="Path_88250" data-name="Path 88250" d="M63.081,22.394a1.776,1.776,0,0,1-1.105-.312.831.831,0,0,1-.416-.652V5.775a.765.765,0,0,1,.416-.671,1.975,1.975,0,0,1,1.077-.265A2.012,2.012,0,0,1,64.12,5.1a.746.746,0,0,1,.444.671v7.161a3.666,3.666,0,0,1,1.1-1.219A3.023,3.023,0,0,1,67.5,11.17a3.411,3.411,0,0,1,2.012.633A4.629,4.629,0,0,1,71,13.494a5.13,5.13,0,0,1,.548,2.381V21.43a.784.784,0,0,1-.463.718,2.258,2.258,0,0,1-2.05,0,.775.775,0,0,1-.444-.718V15.9a1.89,1.89,0,0,0-.283-1,2.541,2.541,0,0,0-.737-.784,1.748,1.748,0,0,0-1.011-.312,1.786,1.786,0,0,0-.945.255,1.965,1.965,0,0,0-.728.718A2.135,2.135,0,0,0,64.6,15.9V21.43a.8.8,0,0,1-.444.652,1.8,1.8,0,0,1-1.077.312Z" transform="translate(-3.214 -0.157)" fill="#fff"/>
        <path id="Path_88251" data-name="Path 88251" d="M79.093,22.973A4.884,4.884,0,0,1,76.6,22.3a5.3,5.3,0,0,1-1.89-1.757,4.365,4.365,0,0,1-.7-2.362v-1.89a4.308,4.308,0,0,1,.68-2.343,4.96,4.96,0,0,1,1.823-1.738,5.083,5.083,0,0,1,2.532-.652,5.14,5.14,0,0,1,2.532.633,5.045,5.045,0,0,1,1.871,1.672,4.3,4.3,0,0,1,.69,2.381v1.89a4.27,4.27,0,0,1-.69,2.343,5.385,5.385,0,0,1-1.89,1.776A4.875,4.875,0,0,1,79.093,22.973Zm0-2.636a1.89,1.89,0,0,0,1.03-.3,2.286,2.286,0,0,0,.746-.813,2.069,2.069,0,0,0,.283-1.039v-1.89a1.889,1.889,0,0,0-.283-1,2.541,2.541,0,0,0-.737-.784,1.89,1.89,0,0,0-2.06,0,2.173,2.173,0,0,0-.737.784,1.994,1.994,0,0,0-.265,1.011v1.89a2.154,2.154,0,0,0,.265,1.039,2.182,2.182,0,0,0,.737.813,1.89,1.89,0,0,0,1.02.293Z" transform="translate(-3.901 -0.529)" fill="#fff"/>
        <path id="Path_88252" data-name="Path 88252" d="M90.566,23.02a1.946,1.946,0,0,1-.718-.123.69.69,0,0,1-.444-.444l-3.618-9.212a.952.952,0,0,0-.076-.274,1.337,1.337,0,0,1,0-.17.831.831,0,0,1,.312-.642,2.6,2.6,0,0,1,.784-.435,2.73,2.73,0,0,1,.841-.161,1.294,1.294,0,0,1,.548.113.7.7,0,0,1,.34.378l2.334,6.613L92.6,12.92a.69.69,0,0,1,.4-.5,1.89,1.89,0,0,1,.633-.1,1.833,1.833,0,0,1,.624.1.69.69,0,0,1,.4.5L96.376,18.7l2.362-6.613c.1-.331.387-.491.831-.491a2.759,2.759,0,0,1,1.634.6.85.85,0,0,1,.331.652.944.944,0,0,1,0,.217.765.765,0,0,1-.066.208l-3.619,9.24a.7.7,0,0,1-.444.416,1.946,1.946,0,0,1-.718.123,2.059,2.059,0,0,1-.775-.142.822.822,0,0,1-.463-.4l-1.8-5.092-1.8,5.064a.643.643,0,0,1-.444.425A2.353,2.353,0,0,1,90.566,23.02Z" transform="translate(-4.547 -0.529)" fill="#fff"/>
        <path id="Path_88253" data-name="Path 88253" d="M52.275,30.019a1.71,1.71,0,0,1-.076.482,1.89,1.89,0,0,1-.227.463,1.6,1.6,0,0,1-.387.368,1.757,1.757,0,0,1-.557.246h0a2.542,2.542,0,0,1,.539.161,1.54,1.54,0,0,1,.463.312,1.417,1.417,0,0,1,.312.482,1.634,1.634,0,0,1,.132.671,1.8,1.8,0,0,1-.217.888,1.89,1.89,0,0,1-.557.6,2.371,2.371,0,0,1-.784.35,3.779,3.779,0,0,1-.945.113h-1.3a3.337,3.337,0,0,1-.416-.076V28.564c.227,0,.5-.066.813-.094s.642,0,1.011,0a5.092,5.092,0,0,1,.746.066,2.107,2.107,0,0,1,.7.236,1.379,1.379,0,0,1,.51.482,1.493,1.493,0,0,1,.246.765Zm-2.712,1.4h.387a2.125,2.125,0,0,0,.378,0,2.834,2.834,0,0,0,.425-.18,1.956,1.956,0,0,0,.35-.255,1.2,1.2,0,0,0,.246-.34,1.077,1.077,0,0,0,.094-.425,1.02,1.02,0,0,0-.123-.51.879.879,0,0,0-.312-.331,1.616,1.616,0,0,0-.454-.17,2.428,2.428,0,0,0-.52-.057h-.576a2.835,2.835,0,0,0-.387,0V31.4Zm.52,3.1a2.419,2.419,0,0,0,.586-.066,1.512,1.512,0,0,0,.5-.227,1.219,1.219,0,0,0,.34-.387,1.086,1.086,0,0,0,.132-.539,1.134,1.134,0,0,0-.161-.624,1.172,1.172,0,0,0-.406-.368,2.031,2.031,0,0,0-.557-.18,4.619,4.619,0,0,0-.624-.047h-.822V34.45h.746Z" transform="translate(-2.479 -1.462)" fill="#fff"/>
        <path id="Path_88254" data-name="Path 88254" d="M55.4,33.572l.265.945h.047l.208-.945.945-3.052h.756L56.2,34.753c-.1.312-.208.6-.312.945a4.544,4.544,0,0,1-.35.775,1.786,1.786,0,0,1-.425.539.775.775,0,0,1-.548.208A1.37,1.37,0,0,1,54,37.124l.132-.652a.747.747,0,0,0,.236,0,.7.7,0,0,0,.51-.274,2.2,2.2,0,0,0,.406-.945L53.4,30.529h.86Z" transform="translate(-2.763 -1.576)" fill="#fff"/>
        <path id="Path_88255" data-name="Path 88255" d="M60.916,30.855a2.938,2.938,0,0,1,.841-.321,4.724,4.724,0,0,1,.945-.1,2.041,2.041,0,0,1,.794.132,1.162,1.162,0,0,1,.453.35,1.37,1.37,0,0,1,.208.463,3.109,3.109,0,0,1,0,.51v2.787a3.477,3.477,0,0,0,.1.576h-.444l-.2-.661h-.047a1.692,1.692,0,0,1-.208.265,1.323,1.323,0,0,1-.312.227,2.116,2.116,0,0,1-.416.161,1.89,1.89,0,0,1-.539.066,1.54,1.54,0,0,1-.557-.094,1.332,1.332,0,0,1-.453-.265A1.36,1.36,0,0,1,60.68,34a1.285,1.285,0,0,1,.17-.69,1.153,1.153,0,0,1,.482-.444,2.182,2.182,0,0,1,.737-.236,5.669,5.669,0,0,1,.945-.076h.52v-.51a1.011,1.011,0,0,0-.208-.727,1.1,1.1,0,0,0-.756-.208h-.34l-.378.066-.368.1-.312.142Zm1.342,3.779a1.465,1.465,0,0,0,.472-.066,1.587,1.587,0,0,0,.359-.18,1.266,1.266,0,0,0,.255-.246.86.86,0,0,0,.142-.255V33.1h-.539a3.647,3.647,0,0,0-.567,0,1.5,1.5,0,0,0-.491.123.831.831,0,0,0-.34.246.586.586,0,0,0-.132.387.69.69,0,0,0,.236.548.869.869,0,0,0,.6.236Z" transform="translate(-3.165 -1.571)" fill="#fff"/>
        <path id="Path_88256" data-name="Path 88256" d="M69,35.227V32.535a2.258,2.258,0,0,0-.17-1.105.8.8,0,0,0-.775-.378,1.257,1.257,0,0,0-.831.274,1.417,1.417,0,0,0-.453.671v3.231H66V30.5h.529l.142.576h0a1.653,1.653,0,0,1,.6-.491,1.984,1.984,0,0,1,.945-.2,2.154,2.154,0,0,1,.68.094.945.945,0,0,1,.482.312,1.493,1.493,0,0,1,.293.614,3.892,3.892,0,0,1,.1.945v2.834Z" transform="translate(-3.459 -1.568)" fill="#fff"/>
        <path id="Path_88257" data-name="Path 88257" d="M71.44,28.969a.529.529,0,0,1,.142-.368.5.5,0,0,1,.378-.161.548.548,0,0,1,.387.161.51.51,0,0,1,.161.368.463.463,0,0,1-.161.359.576.576,0,0,1-.387.142.52.52,0,0,1-.378-.142A.472.472,0,0,1,71.44,28.969Zm.161,1.436h.756v4.724H71.6Z" transform="translate(-3.759 -1.461)" fill="#fff"/>
        <path id="Path_88258" data-name="Path 88258" d="M76.84,35.228V32.554q.016-.321,0-.642a1.323,1.323,0,0,0-.132-.472.642.642,0,0,0-.265-.283,1.134,1.134,0,0,0-1.181.17,1.436,1.436,0,0,0-.4.661v3.25H74.11V30.513h.52l.151.576h0a1.956,1.956,0,0,1,.586-.491,1.691,1.691,0,0,1,.869-.2,1.455,1.455,0,0,1,.746.18,1.134,1.134,0,0,1,.444.6,1.606,1.606,0,0,1,.6-.576,1.833,1.833,0,0,1,.86-.208,1.975,1.975,0,0,1,.671.094.86.86,0,0,1,.453.312,1.474,1.474,0,0,1,.265.614,5.613,5.613,0,0,1,.076.945V35.2h-.68V32.365a5.163,5.163,0,0,0,0-.586,1.134,1.134,0,0,0-.132-.416.576.576,0,0,0-.274-.246,1.1,1.1,0,0,0-.463-.085,1.03,1.03,0,0,0-.737.265,1.625,1.625,0,0,0-.378.756v3.156Z" transform="translate(-3.907 -1.569)" fill="#fff"/>
        <path id="Path_88259" data-name="Path 88259" d="M82.135,30.855a2.938,2.938,0,0,1,.841-.321,4.724,4.724,0,0,1,.945-.1,1.984,1.984,0,0,1,.784.132,1.276,1.276,0,0,1,.463.35,1.191,1.191,0,0,1,.2.463,2.343,2.343,0,0,1,.057.51q0,.567,0,1.105v1.682a3.476,3.476,0,0,0,.1.576h-.557l-.2-.661h0a1.69,1.69,0,0,1-.208.265,1.323,1.323,0,0,1-.312.227,2.116,2.116,0,0,1-.416.161,1.889,1.889,0,0,1-.539.066,1.54,1.54,0,0,1-.557-.094,1.332,1.332,0,0,1-.454-.265A1.36,1.36,0,0,1,81.88,34a1.285,1.285,0,0,1,.17-.69,1.153,1.153,0,0,1,.482-.444,2.182,2.182,0,0,1,.737-.236,5.669,5.669,0,0,1,.945-.076h.52v-.51a1.011,1.011,0,0,0-.208-.727,1.1,1.1,0,0,0-.756-.208h-.34l-.378.066-.368.1-.312.142Zm1.342,3.779a1.465,1.465,0,0,0,.472-.066,1.587,1.587,0,0,0,.359-.18,1.011,1.011,0,0,0,.246-.246.728.728,0,0,0,.151-.255V33.1h-.539a3.647,3.647,0,0,0-.567,0,1.5,1.5,0,0,0-.491.123.831.831,0,0,0-.34.246.586.586,0,0,0-.132.387.69.69,0,0,0,.236.548.869.869,0,0,0,.6.236Z" transform="translate(-4.336 -1.571)" fill="#fff"/>
        <path id="Path_88260" data-name="Path 88260" d="M88.381,33h-.425v2.126H87.2V28.51h.756v4.025l.387-.132,1.5-2h.879l-1.446,1.89-.387.312.472.378,1.578,2.135H90Z" transform="translate(-4.63 -1.465)" fill="#fff"/>
        <path id="Path_88261" data-name="Path 88261" d="M95.283,34.849a1.994,1.994,0,0,1-.709.359,3.137,3.137,0,0,1-.945.132,2.362,2.362,0,0,1-.945-.17,1.729,1.729,0,0,1-.652-.5,2.088,2.088,0,0,1-.378-.784,3.779,3.779,0,0,1-.076-1.03,2.834,2.834,0,0,1,.539-1.842,1.89,1.89,0,0,1,1.54-.633,3.052,3.052,0,0,1,.642.076,1.455,1.455,0,0,1,.576.265,1.37,1.37,0,0,1,.406.567,2.258,2.258,0,0,1,.161.945,4.534,4.534,0,0,1,0,.69h-3.08a2.835,2.835,0,0,0,.085.737,1.408,1.408,0,0,0,.265.548,1.228,1.228,0,0,0,.463.34,1.89,1.89,0,0,0,.709.113,1.965,1.965,0,0,0,.642-.113,1.436,1.436,0,0,0,.482-.265Zm-1.616-3.779a1.351,1.351,0,0,0-.945.293,1.427,1.427,0,0,0-.4,1h2.39a1.455,1.455,0,0,0-.274-1,1.011,1.011,0,0,0-.775-.312Z" transform="translate(-4.871 -1.568)" fill="#fff"/>
        <path id="Path_88262" data-name="Path 88262" d="M99.16,31.232a1.89,1.89,0,0,0-.539-.094.9.9,0,0,0-.935.784v3.307H96.93V30.5h.529l.142.576h0a1.483,1.483,0,0,1,.435-.491,1.049,1.049,0,0,1,.633-.18,2.56,2.56,0,0,1,.614.094Z" transform="translate(-5.167 -1.569)" fill="#fff"/>
      </g>
    </g>
    <g id="Group_70157" data-name="Group 70157" transform="translate(777 597)">
      <rect id="Rectangle_27589" data-name="Rectangle 27589" width="29" height="29" rx="7" transform="translate(81 5510)" fill="url(#linear-gradient)"/>
      <g id="Group_70146" data-name="Group 70146" transform="translate(47.405 -8.911)">
        <path id="Path_88244" data-name="Path 88244" d="M36.976,37.265a.436.436,0,0,1-.309-.745,6.732,6.732,0,0,0,0-9.515.436.436,0,0,1,0-.618.464.464,0,0,1,.632,0,7.618,7.618,0,0,1,0,10.752A.492.492,0,0,1,36.976,37.265Z" transform="translate(16.179 5501.648)" fill="#fff"/>
        <path id="Path_88245" data-name="Path 88245" d="M30.384,37.265a.492.492,0,0,1-.323-.126,7.618,7.618,0,0,1,0-10.752.464.464,0,0,1,.632,0,.436.436,0,0,1,0,.618,6.7,6.7,0,0,0,0,9.515.436.436,0,0,1-.309.745Z" transform="translate(12.651 5501.648)" fill="#fff"/>
        <path id="Path_88246" data-name="Path 88246" d="M35.5,34.583a.436.436,0,0,1-.309-.126.464.464,0,0,1,0-.632,3.781,3.781,0,0,0,0-5.327.436.436,0,0,1,0-.618.422.422,0,0,1,.618,0,4.551,4.551,0,0,1,0,6.578A.436.436,0,0,1,35.5,34.583Z" transform="translate(15.578 5502.25)" fill="#fff"/>
        <path id="Path_88247" data-name="Path 88247" d="M31.625,34.583a.436.436,0,0,1-.309-.126,4.551,4.551,0,0,1,0-6.578.422.422,0,0,1,.618,0,.436.436,0,0,1,0,.618,3.753,3.753,0,0,0,0,5.327.464.464,0,0,1,0,.632A.436.436,0,0,1,31.625,34.583Z" transform="translate(13.49 5502.25)" fill="#fff"/>
        <path id="Path_88248" data-name="Path 88248" d="M34.88,30.336l-1.926-1.124a.365.365,0,0,0-.534.309v2.221a.351.351,0,0,0,.534.309l1.926-1.124a.337.337,0,0,0,0-.59Z" transform="translate(14.508 5502.828)" fill="#fff"/>
      </g>
    </g>
  </g>
</svg>
