<svg xmlns="http://www.w3.org/2000/svg" xmlns:xlink="http://www.w3.org/1999/xlink" width="186.155" height="29" viewBox="0 0 186.155 29">
  <defs>
    <linearGradient id="linear-gradient" x1="-0.207" y1="-0.098" x2="0.823" y2="0.872" gradientUnits="objectBoundingBox">
      <stop offset="0" stop-color="#ff7600"/>
      <stop offset="1" stop-color="#fcdf00"/>
    </linearGradient>
  </defs>
  <g id="logo-subtitle" transform="translate(-859 -5674)">
    <rect id="Rectangle_27587" data-name="Rectangle 27587" width="29" height="29" rx="7" transform="translate(859 5674)" fill="url(#linear-gradient)"/>
    <path id="Path_85254" data-name="Path 85254" d="M11.748-64.412a2.083,2.083,0,0,1-.184.808,2.913,2.913,0,0,1-.578.853,2.95,2.95,0,0,1-1.007.68,3.622,3.622,0,0,1-1.429.261,4.992,4.992,0,0,1-1.125-.117,3.159,3.159,0,0,1-.92-.364,3.1,3.1,0,0,1-.76-.655,3.88,3.88,0,0,1-.528-.823,4.3,4.3,0,0,1-.328-.973,5.3,5.3,0,0,1-.109-1.1,4.871,4.871,0,0,1,.274-1.69,3.6,3.6,0,0,1,.786-1.277,3.429,3.429,0,0,1,1.2-.808,3.884,3.884,0,0,1,1.465-.277,3.663,3.663,0,0,1,1.69.379,3.058,3.058,0,0,1,1.139.935,1.847,1.847,0,0,1,.394,1.053.687.687,0,0,1-.192.48.609.609,0,0,1-.464.208.64.64,0,0,1-.456-.144,1.993,1.993,0,0,1-.339-.5,2.384,2.384,0,0,0-.727-.869,1.778,1.778,0,0,0-1.032-.288,1.869,1.869,0,0,0-1.554.741,3.354,3.354,0,0,0-.578,2.106,3.91,3.91,0,0,0,.256,1.516,1.915,1.915,0,0,0,.725.9,2,2,0,0,0,1.1.3,1.928,1.928,0,0,0,1.154-.339,2.044,2.044,0,0,0,.712-.994,1.687,1.687,0,0,1,.251-.5.566.566,0,0,1,.48-.195.671.671,0,0,1,.485.2A.657.657,0,0,1,11.748-64.412Zm8.081,0a2.083,2.083,0,0,1-.184.808,2.913,2.913,0,0,1-.578.853,2.95,2.95,0,0,1-1.007.68,3.622,3.622,0,0,1-1.429.261,4.992,4.992,0,0,1-1.125-.117,3.159,3.159,0,0,1-.92-.364,3.1,3.1,0,0,1-.759-.655,3.879,3.879,0,0,1-.528-.823,4.294,4.294,0,0,1-.328-.973,5.3,5.3,0,0,1-.109-1.1,4.871,4.871,0,0,1,.274-1.69,3.6,3.6,0,0,1,.786-1.277,3.429,3.429,0,0,1,1.2-.808,3.884,3.884,0,0,1,1.464-.277,3.663,3.663,0,0,1,1.69.379,3.058,3.058,0,0,1,1.139.935,1.847,1.847,0,0,1,.394,1.053.687.687,0,0,1-.192.48.609.609,0,0,1-.464.208.64.64,0,0,1-.456-.144,1.993,1.993,0,0,1-.339-.5,2.384,2.384,0,0,0-.727-.869,1.778,1.778,0,0,0-1.032-.288,1.869,1.869,0,0,0-1.554.741,3.354,3.354,0,0,0-.578,2.106,3.91,3.91,0,0,0,.256,1.516,1.915,1.915,0,0,0,.725.9,2,2,0,0,0,1.1.3,1.928,1.928,0,0,0,1.154-.339,2.044,2.044,0,0,0,.712-.994,1.687,1.687,0,0,1,.251-.5.566.566,0,0,1,.48-.195.671.671,0,0,1,.485.2.657.657,0,0,1,.2.489Z" transform="translate(861.194 5754.351)" fill="#fff"/>
    <path id="Path_88317" data-name="Path 88317" d="M1.729,0a2.027,2.027,0,0,1-.7-.133A1.8,1.8,0,0,1,.418-.494a.7.7,0,0,1-.247-.532,1.542,1.542,0,0,1,.019-.19L3.857-13.167a1.022,1.022,0,0,1,.6-.627,2.407,2.407,0,0,1,1-.209,2.388,2.388,0,0,1,1.007.209,1.023,1.023,0,0,1,.589.627L10.716-1.216a.805.805,0,0,1,.038.19A.7.7,0,0,1,10.5-.5a1.825,1.825,0,0,1-.618.37,2.027,2.027,0,0,1-.7.133,1.2,1.2,0,0,1-.523-.1.562.562,0,0,1-.295-.39L7.638-3.021H3.268l-.7,2.527a.556.556,0,0,1-.3.39A1.266,1.266,0,0,1,1.729,0ZM3.8-4.959H7.106L5.453-10.792ZM13.072,0A1.456,1.456,0,0,1,12.2-.247a.679.679,0,0,1-.342-.532V-8.265a.627.627,0,0,1,.342-.551,1.654,1.654,0,0,1,.874-.209,1.356,1.356,0,0,1,.769.209.636.636,0,0,1,.314.551v.57a2.785,2.785,0,0,1,.941-1A2.785,2.785,0,0,1,16.7-9.139a2.773,2.773,0,0,1,1.634.523,3.772,3.772,0,0,1,1.188,1.4,4.2,4.2,0,0,1,.447,1.938v4.5a.627.627,0,0,1-.38.58,1.811,1.811,0,0,1-.855.2,1.808,1.808,0,0,1-.817-.2.627.627,0,0,1-.4-.58v-4.5A1.612,1.612,0,0,0,17.3-6.1a1.912,1.912,0,0,0-.6-.636,1.463,1.463,0,0,0-.836-.257,1.462,1.462,0,0,0-.741.209,1.64,1.64,0,0,0-.589.589,1.741,1.741,0,0,0-.228.912v4.5a.676.676,0,0,1-.361.532A1.51,1.51,0,0,1,13.072,0Zm9.937-11.039a1.348,1.348,0,0,1-.95-.371,1.109,1.109,0,0,1-.4-.826,1.089,1.089,0,0,1,.4-.845,1.389,1.389,0,0,1,.95-.352,1.345,1.345,0,0,1,.95.352,1.111,1.111,0,0,1,.38.845,1.132,1.132,0,0,1-.38.826A1.306,1.306,0,0,1,23.009-11.039ZM23.009,0a1.456,1.456,0,0,1-.874-.247.679.679,0,0,1-.342-.532V-8.265a.627.627,0,0,1,.342-.551,1.654,1.654,0,0,1,.874-.209,1.717,1.717,0,0,1,.874.209.624.624,0,0,1,.361.551V-.779a.676.676,0,0,1-.361.532A1.51,1.51,0,0,1,23.009,0Zm4.332,0a1.456,1.456,0,0,1-.874-.247.679.679,0,0,1-.342-.532V-8.265a.627.627,0,0,1,.342-.551,1.654,1.654,0,0,1,.874-.209,1.356,1.356,0,0,1,.769.209.636.636,0,0,1,.314.551v.57a3.276,3.276,0,0,1,.95-1,2.651,2.651,0,0,1,1.577-.446,2.167,2.167,0,0,1,1.444.532,3.179,3.179,0,0,1,.931,1.368A3.445,3.445,0,0,1,34.59-8.674a3.027,3.027,0,0,1,1.586-.465,3.222,3.222,0,0,1,1.644.446,3.384,3.384,0,0,1,1.254,1.311,4.235,4.235,0,0,1,.484,2.1v4.5a.676.676,0,0,1-.361.532A1.51,1.51,0,0,1,38.323,0a1.477,1.477,0,0,1-.855-.247.676.676,0,0,1-.361-.532v-4.5a1.883,1.883,0,0,0-.218-.95,1.5,1.5,0,0,0-.58-.579,1.514,1.514,0,0,0-.741-.2,1.361,1.361,0,0,0-.713.2,1.643,1.643,0,0,0-.561.579,1.78,1.78,0,0,0-.228.931V-.76a.6.6,0,0,1-.39.579A1.986,1.986,0,0,1,32.832,0a1.963,1.963,0,0,1-.817-.181.6.6,0,0,1-.4-.579V-5.282a1.8,1.8,0,0,0-.219-.912,1.592,1.592,0,0,0-.57-.589,1.444,1.444,0,0,0-.75-.209,1.465,1.465,0,0,0-.722.19,1.47,1.47,0,0,0-.561.57,1.883,1.883,0,0,0-.218.95v4.5a.676.676,0,0,1-.361.532A1.51,1.51,0,0,1,27.341,0ZM43.32.171a2.608,2.608,0,0,1-1.738-.617,2.361,2.361,0,0,1-.732-1.909,2.4,2.4,0,0,1,.561-1.691A3.054,3.054,0,0,1,42.968-4.9a9.66,9.66,0,0,1,2.309-.247h.779V-5.4a2.159,2.159,0,0,0-.161-.817,1.551,1.551,0,0,0-.513-.665,1.626,1.626,0,0,0-1-.266A3.377,3.377,0,0,0,43.272-7a2.5,2.5,0,0,0-.6.295.759.759,0,0,1-.456.152.677.677,0,0,1-.618-.4,1.682,1.682,0,0,1-.218-.817.873.873,0,0,1,.485-.713,3.849,3.849,0,0,1,1.188-.484,5.779,5.779,0,0,1,1.368-.171,4.613,4.613,0,0,1,2.375.532,3.247,3.247,0,0,1,1.3,1.368,4.056,4.056,0,0,1,.409,1.805V-.779a.657.657,0,0,1-.342.551A1.509,1.509,0,0,1,47.31,0a1.306,1.306,0,0,1-.788-.228.667.667,0,0,1-.313-.551V-1.33A5.85,5.85,0,0,1,45-.285,2.993,2.993,0,0,1,43.32.171Zm.988-1.824a1.43,1.43,0,0,0,.8-.266A2.394,2.394,0,0,0,45.78-2.6a1.565,1.565,0,0,0,.276-.874v-.4h-.285a9.058,9.058,0,0,0-1.2.076,1.987,1.987,0,0,0-.921.332.911.911,0,0,0-.352.789A.961.961,0,0,0,43.6-1.9,1.072,1.072,0,0,0,44.308-1.653ZM51.547,0a1.423,1.423,0,0,1-.855-.247.679.679,0,0,1-.342-.532V-13.528a.627.627,0,0,1,.342-.551,1.614,1.614,0,0,1,.855-.209,1.758,1.758,0,0,1,.893.209.624.624,0,0,1,.361.551v7.961L56.392-8.93a.644.644,0,0,1,.475-.19,1.013,1.013,0,0,1,.561.181,1.612,1.612,0,0,1,.456.446.968.968,0,0,1,.181.551.661.661,0,0,1-.047.238.533.533,0,0,1-.162.218L55.613-5.453l2.812,3.99a.747.747,0,0,1,.133.4.913.913,0,0,1-.228.57,1.861,1.861,0,0,1-.551.466,1.283,1.283,0,0,1-.627.181.709.709,0,0,1-.608-.323L54-3.952,52.8-2.869v2.09a.676.676,0,0,1-.361.532A1.545,1.545,0,0,1,51.547,0ZM63.783.171A5.567,5.567,0,0,1,61.4-.313a3.877,3.877,0,0,1-1.625-1.368,3.6,3.6,0,0,1-.589-2.043V-5.339a3.406,3.406,0,0,1,.56-1.891,4.165,4.165,0,0,1,1.5-1.387,4.249,4.249,0,0,1,2.1-.523,4.183,4.183,0,0,1,1.948.456,3.87,3.87,0,0,1,1.434,1.254,3.2,3.2,0,0,1,.551,1.862A1.974,1.974,0,0,1,67.013-4.4a1.111,1.111,0,0,1-.674.437,4.117,4.117,0,0,1-.846.086H61.636v.285a1.622,1.622,0,0,0,.617,1.32,2.46,2.46,0,0,0,1.606.5,2.526,2.526,0,0,0,1.045-.19q.418-.19.722-.361a1.172,1.172,0,0,1,.57-.171.71.71,0,0,1,.494.19,1.324,1.324,0,0,1,.323.447,1.13,1.13,0,0,1,.114.446,1.007,1.007,0,0,1-.409.693,3.306,3.306,0,0,1-1.159.627A5.507,5.507,0,0,1,63.783.171ZM61.636-5.32H64.41a.709.709,0,0,0,.446-.1.524.524,0,0,0,.124-.409,1.372,1.372,0,0,0-.228-.779,1.548,1.548,0,0,0-.608-.532,1.843,1.843,0,0,0-.836-.19,1.88,1.88,0,0,0-.817.181,1.575,1.575,0,0,0-.618.513,1.321,1.321,0,0,0-.237.789ZM69.939,0a1.423,1.423,0,0,1-.855-.247.679.679,0,0,1-.342-.532V-8.265a.627.627,0,0,1,.342-.551,1.614,1.614,0,0,1,.855-.209,1.392,1.392,0,0,1,.788.209.636.636,0,0,1,.313.551v.779a3.273,3.273,0,0,1,.561-.788,3.218,3.218,0,0,1,.807-.618,2,2,0,0,1,.969-.247h.589a.8.8,0,0,1,.627.313,1.122,1.122,0,0,1,.266.751,1.149,1.149,0,0,1-.266.769.8.8,0,0,1-.627.313h-.589a1.788,1.788,0,0,0-1.035.352,2.653,2.653,0,0,0-.826.969,3.183,3.183,0,0,0-.323,1.492v3.4a.676.676,0,0,1-.361.532A1.545,1.545,0,0,1,69.939,0ZM83.562.171A6.525,6.525,0,0,1,81.33-.19a4.552,4.552,0,0,1-1.577-.9,1.53,1.53,0,0,1-.579-1.092,1.411,1.411,0,0,1,.143-.58,1.565,1.565,0,0,1,.389-.532.811.811,0,0,1,.551-.219.882.882,0,0,1,.57.219q.266.218.608.513a3.345,3.345,0,0,0,.836.513,3,3,0,0,0,1.216.218,3,3,0,0,0,1.055-.181,1.784,1.784,0,0,0,.779-.541,1.425,1.425,0,0,0,.295-.931,1.628,1.628,0,0,0-.323-1.026,2.78,2.78,0,0,0-.874-.722q-.551-.3-1.2-.589t-1.3-.608a5.894,5.894,0,0,1-1.2-.779,3.48,3.48,0,0,1-.874-1.121,3.629,3.629,0,0,1-.333-1.634,3.582,3.582,0,0,1,.409-1.786,3.367,3.367,0,0,1,1.083-1.168,4.7,4.7,0,0,1,1.492-.646,6.866,6.866,0,0,1,1.634-.2,9.557,9.557,0,0,1,1.035.066,7.277,7.277,0,0,1,1.2.238,2.984,2.984,0,0,1,.988.465.9.9,0,0,1,.39.75,1.671,1.671,0,0,1-.1.532,1.523,1.523,0,0,1-.323.542.727.727,0,0,1-.56.238,1.134,1.134,0,0,1-.6-.181,4.793,4.793,0,0,0-.76-.361,3.587,3.587,0,0,0-1.263-.181,3.375,3.375,0,0,0-1.159.181,1.624,1.624,0,0,0-.741.494,1.235,1.235,0,0,0-.247.789,1.154,1.154,0,0,0,.333.836,3.13,3.13,0,0,0,.874.608q.542.266,1.188.532a14.186,14.186,0,0,1,1.3.617,6.165,6.165,0,0,1,1.206.845,3.541,3.541,0,0,1,.874,1.225,4.44,4.44,0,0,1,.323,1.8A4.133,4.133,0,0,1,87.5-1.681,3.682,3.682,0,0,1,85.89-.294,5.533,5.533,0,0,1,83.562.171Zm10.07,0A4.1,4.1,0,0,1,91.551-.37,4.266,4.266,0,0,1,90.05-1.8a3.467,3.467,0,0,1-.56-1.891v-4.56a.675.675,0,0,1,.37-.532,1.522,1.522,0,0,1,.864-.247,1.477,1.477,0,0,1,.855.247.676.676,0,0,1,.361.532v4.56a1.561,1.561,0,0,0,.228.817,2.009,2.009,0,0,0,.608.636,1.463,1.463,0,0,0,.836.257,1.489,1.489,0,0,0,.846-.247,1.892,1.892,0,0,0,.6-.646,1.628,1.628,0,0,0,.228-.817V-8.265a.641.641,0,0,1,.37-.532,1.58,1.58,0,0,1,.845-.228,1.583,1.583,0,0,1,.893.228.645.645,0,0,1,.342.532v4.579a3.5,3.5,0,0,1-.561,1.91,4.185,4.185,0,0,1-1.5,1.416A4.079,4.079,0,0,1,93.632.171Zm10.868,0a2.962,2.962,0,0,1-1.615-.456,2.776,2.776,0,0,1-1.026-1.045v.551a.689.689,0,0,1-.313.532,1.235,1.235,0,0,1-.788.247A1.423,1.423,0,0,1,99.9-.247a.679.679,0,0,1-.342-.532V-13.528a.627.627,0,0,1,.342-.551,1.614,1.614,0,0,1,.855-.209,1.758,1.758,0,0,1,.893.209.624.624,0,0,1,.361.551V-7.7a3.058,3.058,0,0,1,.931-1,2.52,2.52,0,0,1,1.5-.446,2.962,2.962,0,0,1,1.7.523,3.75,3.75,0,0,1,1.226,1.4,4.126,4.126,0,0,1,.456,1.938v1.558a4.12,4.12,0,0,1-.456,1.9A3.99,3.99,0,0,1,106.153-.38,2.758,2.758,0,0,1,104.5.171Zm-.779-2.147a1.463,1.463,0,0,0,.836-.257,1.856,1.856,0,0,0,.6-.655,1.717,1.717,0,0,0,.218-.836V-5.282a1.612,1.612,0,0,0-.218-.817,1.912,1.912,0,0,0-.6-.636,1.493,1.493,0,0,0-.855-.257,1.652,1.652,0,0,0-.788.209,1.8,1.8,0,0,0-.646.589,1.591,1.591,0,0,0-.257.912v1.9a1.049,1.049,0,0,0,.228.523,2.454,2.454,0,0,0,.618.608A1.463,1.463,0,0,0,103.721-1.976ZM112.879,0a4.026,4.026,0,0,1-2.613-.741,2.851,2.851,0,0,1-.9-2.337v-9.215a.623.623,0,0,1,.4-.551,1.742,1.742,0,0,1,.817-.209,1.76,1.76,0,0,1,.846.209.622.622,0,0,1,.389.551v3.268h2.242a.511.511,0,0,1,.465.275,1.2,1.2,0,0,1,.161.618,1.2,1.2,0,0,1-.161.617.511.511,0,0,1-.465.275h-2.242v4.161a1.051,1.051,0,0,0,.238.779,1.184,1.184,0,0,0,.826.228h.741a.946.946,0,0,1,.788.323,1.107,1.107,0,0,1,.257.7,1.132,1.132,0,0,1-.257.722A.946.946,0,0,1,113.62,0Zm4.275-11.039a1.348,1.348,0,0,1-.95-.371,1.109,1.109,0,0,1-.4-.826,1.089,1.089,0,0,1,.4-.845,1.389,1.389,0,0,1,.95-.352,1.345,1.345,0,0,1,.95.352,1.111,1.111,0,0,1,.38.845,1.132,1.132,0,0,1-.38.826A1.306,1.306,0,0,1,117.154-11.039Zm0,11.039a1.456,1.456,0,0,1-.874-.247.679.679,0,0,1-.342-.532V-8.265a.627.627,0,0,1,.342-.551,1.654,1.654,0,0,1,.874-.209,1.717,1.717,0,0,1,.874.209.624.624,0,0,1,.361.551V-.779a.676.676,0,0,1-.361.532A1.51,1.51,0,0,1,117.154,0Zm6.593,0a4.026,4.026,0,0,1-2.613-.741,2.851,2.851,0,0,1-.9-2.337v-9.215a.623.623,0,0,1,.4-.551,1.742,1.742,0,0,1,.817-.209,1.76,1.76,0,0,1,.846.209.622.622,0,0,1,.389.551v3.268h2.242a.511.511,0,0,1,.465.275,1.2,1.2,0,0,1,.161.618,1.2,1.2,0,0,1-.161.617.511.511,0,0,1-.465.275h-2.242v4.161a1.051,1.051,0,0,0,.238.779,1.184,1.184,0,0,0,.826.228h.741a.946.946,0,0,1,.788.323,1.107,1.107,0,0,1,.257.7,1.132,1.132,0,0,1-.257.722.946.946,0,0,1-.788.323Zm4.446,0a1.456,1.456,0,0,1-.874-.247.679.679,0,0,1-.342-.532V-13.528a.627.627,0,0,1,.342-.551,1.654,1.654,0,0,1,.874-.209,1.717,1.717,0,0,1,.874.209.624.624,0,0,1,.361.551V-.779a.676.676,0,0,1-.361.532A1.51,1.51,0,0,1,128.193,0Zm7.562.171a5.567,5.567,0,0,1-2.384-.484,3.877,3.877,0,0,1-1.624-1.368,3.6,3.6,0,0,1-.589-2.043V-5.339a3.406,3.406,0,0,1,.561-1.891,4.165,4.165,0,0,1,1.5-1.387,4.249,4.249,0,0,1,2.1-.523,4.183,4.183,0,0,1,1.948.456A3.87,3.87,0,0,1,138.7-7.429a3.2,3.2,0,0,1,.551,1.862,1.974,1.974,0,0,1-.266,1.169,1.111,1.111,0,0,1-.674.437,4.117,4.117,0,0,1-.846.086h-3.857v.285a1.621,1.621,0,0,0,.617,1.32,2.46,2.46,0,0,0,1.605.5,2.527,2.527,0,0,0,1.045-.19q.418-.19.722-.361a1.172,1.172,0,0,1,.57-.171.71.71,0,0,1,.494.19,1.324,1.324,0,0,1,.323.447,1.13,1.13,0,0,1,.114.446,1.007,1.007,0,0,1-.409.693,3.306,3.306,0,0,1-1.159.627A5.507,5.507,0,0,1,135.755.171ZM133.608-5.32h2.774a.709.709,0,0,0,.447-.1.524.524,0,0,0,.124-.409,1.372,1.372,0,0,0-.228-.779,1.548,1.548,0,0,0-.608-.532,1.843,1.843,0,0,0-.836-.19,1.88,1.88,0,0,0-.817.181,1.575,1.575,0,0,0-.618.513,1.321,1.321,0,0,0-.237.789ZM143.659.171a6.01,6.01,0,0,1-1.739-.237,3.409,3.409,0,0,1-1.235-.617,1.053,1.053,0,0,1-.446-.779,1.214,1.214,0,0,1,.1-.447,1.418,1.418,0,0,1,.285-.446.57.57,0,0,1,.428-.19.954.954,0,0,1,.56.218,4.333,4.333,0,0,0,.741.428,3,3,0,0,0,1.244.209,1.7,1.7,0,0,0,1.131-.266.771.771,0,0,0,.275-.551.738.738,0,0,0-.333-.646,3,3,0,0,0-.846-.38q-.513-.152-1.092-.313a5.319,5.319,0,0,1-1.092-.437,2.3,2.3,0,0,1-.836-.76,2.239,2.239,0,0,1-.323-1.263,2.941,2.941,0,0,1,.323-1.33,2.586,2.586,0,0,1,1.064-1.074,4.033,4.033,0,0,1,2.014-.427,6.477,6.477,0,0,1,1.473.161,3.537,3.537,0,0,1,1.13.446.784.784,0,0,1,.437.627,1.241,1.241,0,0,1-.114.446,1.813,1.813,0,0,1-.313.5.621.621,0,0,1-.484.228,1.2,1.2,0,0,1-.5-.142,6.441,6.441,0,0,0-.674-.275,2.772,2.772,0,0,0-.912-.133,1.818,1.818,0,0,0-.76.133,1.022,1.022,0,0,0-.418.323.685.685,0,0,0-.133.4.59.59,0,0,0,.323.532,3.28,3.28,0,0,0,.845.323q.523.133,1.1.295a4.461,4.461,0,0,1,1.1.475,2.513,2.513,0,0,1,.845.826,2.543,2.543,0,0,1,.323,1.368,2.5,2.5,0,0,1-.9,2.014A3.922,3.922,0,0,1,143.659.171Z" transform="translate(898 5695.288)" fill="#2d2d2d"/>
  </g>
</svg>
