<svg xmlns="http://www.w3.org/2000/svg" xmlns:xlink="http://www.w3.org/1999/xlink" width="114" height="29" viewBox="0 0 114 29">
  <defs>
    <linearGradient id="linear-gradient" x1="0.274" y1="-0.376" x2="0.722" y2="-1.222" gradientUnits="objectBoundingBox">
      <stop offset="0" stop-color="#63d6b5"/>
      <stop offset="1" stop-color="#08b3e5"/>
    </linearGradient>
  </defs>
  <g id="logo-vmaker" transform="translate(-178 -5766)">
    <g id="Group_69645" data-name="Group 69645" transform="translate(5294 6020.632)">
      <g id="Group_63513" data-name="Group 63513" transform="translate(-5077.157 -249.632)">
        <path id="Path_88096" data-name="Path 88096" d="M398.349,475.11a2.9,2.9,0,0,1-1.249-.262,1.261,1.261,0,0,1-.725-.786l-4.634-15.031a.65.65,0,0,1-.04-.242.861.861,0,0,1,.3-.665,2.458,2.458,0,0,1,.786-.463,2.366,2.366,0,0,1,.887-.161,1.352,1.352,0,0,1,.665.141.663.663,0,0,1,.363.484l3.365,11.908a.3.3,0,0,0,.584,0L402,458.125a.708.708,0,0,1,.4-.484,1.622,1.622,0,0,1,.665-.141,2.849,2.849,0,0,1,.887.161,2.225,2.225,0,0,1,.766.463.892.892,0,0,1,.3.665.182.182,0,0,1-.02.1c0,.04-.02.081-.02.141l-4.614,15.031a1.261,1.261,0,0,1-.725.786A3.077,3.077,0,0,1,398.349,475.11Z" transform="translate(-391.7 -457.016)" fill="#fff"/>
        <path id="Path_88097" data-name="Path 88097" d="M462.031,498.685a1.937,1.937,0,0,1-1.108-.3.837.837,0,0,1-.423-.665v-9.41a.768.768,0,0,1,.423-.685,2.006,2.006,0,0,1,1.108-.262,1.654,1.654,0,0,1,.967.262.811.811,0,0,1,.4.685v.725a3.865,3.865,0,0,1,1.189-1.249,3.269,3.269,0,0,1,1.975-.564,2.725,2.725,0,0,1,1.813.665,4.127,4.127,0,0,1,1.169,1.713,4.559,4.559,0,0,1,1.592-1.813,3.872,3.872,0,0,1,1.995-.584,4.021,4.021,0,0,1,2.075.564,4.289,4.289,0,0,1,1.572,1.652,5.38,5.38,0,0,1,.6,2.64v5.662a.847.847,0,0,1-.463.665,1.938,1.938,0,0,1-1.108.3,1.85,1.85,0,0,1-1.068-.3.847.847,0,0,1-.463-.665v-5.662a2.357,2.357,0,0,0-.282-1.189,1.8,1.8,0,0,0-.725-.725,1.929,1.929,0,0,0-.927-.242,1.674,1.674,0,0,0-.887.242,2.033,2.033,0,0,0-.705.725,2.333,2.333,0,0,0-.282,1.169v5.7a.738.738,0,0,1-.484.725,2.362,2.362,0,0,1-1.068.222,2.7,2.7,0,0,1-1.028-.222.765.765,0,0,1-.5-.725v-5.682a2.308,2.308,0,0,0-.282-1.149,1.984,1.984,0,0,0-.725-.746,1.769,1.769,0,0,0-.947-.262,1.8,1.8,0,0,0-.907.242,1.881,1.881,0,0,0-.705.725,2.412,2.412,0,0,0-.282,1.189v5.662a.847.847,0,0,1-.463.665A1.622,1.622,0,0,1,462.031,498.685Z" transform="translate(-446.637 -480.732)" fill="#fff"/>
        <path id="Path_88098" data-name="Path 88098" d="M555.523,498.727a3.3,3.3,0,0,1-2.2-.786,2.994,2.994,0,0,1-.927-2.4,3.1,3.1,0,0,1,.705-2.136,3.836,3.836,0,0,1,1.955-1.068,12.585,12.585,0,0,1,2.9-.3h.987v-.3a2.665,2.665,0,0,0-.2-1.028,1.842,1.842,0,0,0-1.894-1.189,4.137,4.137,0,0,0-1.39.181,3.21,3.21,0,0,0-.746.363.988.988,0,0,1-.564.181.863.863,0,0,1-.786-.5,2.194,2.194,0,0,1-.282-1.028,1.074,1.074,0,0,1,.6-.887,4.807,4.807,0,0,1,1.491-.6,7.4,7.4,0,0,1,1.713-.222,5.787,5.787,0,0,1,2.982.665,4.15,4.15,0,0,1,1.632,1.713,5.093,5.093,0,0,1,.5,2.277v5.863a.815.815,0,0,1-.423.685,1.956,1.956,0,0,1-1.068.282,1.683,1.683,0,0,1-.987-.282.837.837,0,0,1-.4-.685v-.685a6.8,6.8,0,0,1-1.511,1.31A3.519,3.519,0,0,1,555.523,498.727Zm1.229-2.277a1.834,1.834,0,0,0,1.007-.343,2.676,2.676,0,0,0,.846-.866,2.046,2.046,0,0,0,.343-1.108v-.484h-.363a12.143,12.143,0,0,0-1.511.1,2.443,2.443,0,0,0-1.169.423,1.131,1.131,0,0,0-.443.987,1.264,1.264,0,0,0,.363.987A1.693,1.693,0,0,0,556.752,496.45Z" transform="translate(-520.02 -480.572)" fill="#fff"/>
        <path id="Path_88099" data-name="Path 88099" d="M613.291,473.053a1.806,1.806,0,0,1-1.068-.3.837.837,0,0,1-.423-.665V456.047a.768.768,0,0,1,.423-.685,1.953,1.953,0,0,1,1.068-.262,2.175,2.175,0,0,1,1.128.262.8.8,0,0,1,.463.685v10.014l4.513-4.231a.82.82,0,0,1,.6-.242,1.321,1.321,0,0,1,.705.222,2.147,2.147,0,0,1,.564.564,1.153,1.153,0,0,1,.222.685.808.808,0,0,1-.06.3.668.668,0,0,1-.2.282l-2.821,2.559,3.546,5.017a.871.871,0,0,1,.161.5,1.221,1.221,0,0,1-.282.725,2.119,2.119,0,0,1-.685.584,1.459,1.459,0,0,1-.786.222.92.92,0,0,1-.766-.4l-3.2-4.755-1.511,1.37v2.619a.847.847,0,0,1-.463.665A2.006,2.006,0,0,1,613.291,473.053Z" transform="translate(-567.451 -455.1)" fill="#fff"/>
        <path id="Path_88100" data-name="Path 88100" d="M672.683,498.807a7.068,7.068,0,0,1-3-.6,4.872,4.872,0,0,1-2.035-1.713,4.441,4.441,0,0,1-.745-2.559V491.9a4.323,4.323,0,0,1,.705-2.378,5.513,5.513,0,0,1,6.992-1.854,4.9,4.9,0,0,1,1.813,1.572,3.993,3.993,0,0,1,.685,2.337,2.507,2.507,0,0,1-.343,1.471,1.305,1.305,0,0,1-.846.544,4.683,4.683,0,0,1-1.068.1h-4.856v.363a2.015,2.015,0,0,0,.786,1.652,3.6,3.6,0,0,0,3.325.383,9.408,9.408,0,0,0,.907-.463,1.505,1.505,0,0,1,.725-.222.9.9,0,0,1,.625.242,1.611,1.611,0,0,1,.4.564,1.358,1.358,0,0,1,.141.564,1.318,1.318,0,0,1-.5.866,4.42,4.42,0,0,1-1.451.786A5.583,5.583,0,0,1,672.683,498.807Zm-2.7-6.891h3.486a.827.827,0,0,0,.564-.141.652.652,0,0,0,.161-.5,1.876,1.876,0,0,0-.282-.987,1.9,1.9,0,0,0-.766-.665,2.29,2.29,0,0,0-1.048-.242,2.544,2.544,0,0,0-1.028.222,2.056,2.056,0,0,0-.786.645,1.64,1.64,0,0,0-.3.987Z" transform="translate(-611.449 -480.652)" fill="#fff"/>
        <path id="Path_88101" data-name="Path 88101" d="M728.091,498.765a1.806,1.806,0,0,1-1.068-.3.837.837,0,0,1-.423-.665v-9.41a.768.768,0,0,1,.423-.685,1.954,1.954,0,0,1,1.068-.262,1.678,1.678,0,0,1,.987.262.811.811,0,0,1,.4.685v.987a4.053,4.053,0,0,1,.705-.987,4.833,4.833,0,0,1,1.007-.786,2.561,2.561,0,0,1,1.209-.3h.746a1.013,1.013,0,0,1,.786.4,1.438,1.438,0,0,1,.343.947,1.453,1.453,0,0,1-.343.967,1.012,1.012,0,0,1-.786.4H732.4a2.228,2.228,0,0,0-1.31.443,3.619,3.619,0,0,0-1.048,1.209,4.147,4.147,0,0,0-.4,1.874v4.272a.847.847,0,0,1-.463.665A1.933,1.933,0,0,1,728.091,498.765Z" transform="translate(-659.12 -480.812)" fill="#fff"/>
      </g>
    </g>
    <g id="Group_70152" data-name="Group 70152" transform="translate(97 391)">
      <rect id="Rectangle_27585" data-name="Rectangle 27585" width="29" height="29" rx="7" transform="translate(81 5375)" fill="url(#linear-gradient)"/>
      <g id="Group_70144" data-name="Group 70144" transform="translate(-1.189 -0.884)">
        <path id="Path_88291" data-name="Path 88291" d="M337.328,543.335l1.571,1.749c.563.445,1.334-.029,1.334-.83a20.7,20.7,0,0,0,0-3.32c0-.741-.711-1.215-1.245-.8l-1.63,1.808A1.078,1.078,0,0,0,337.328,543.335Z" transform="translate(-236.104 4847.292)" fill="#fff"/>
        <path id="Path_88292" data-name="Path 88292" d="M304.5,531.947q-1.645-.044-3.29,0a3.909,3.909,0,0,0-3.913,3.913v2.164a3.909,3.909,0,0,0,3.913,3.913,20.335,20.335,0,0,0,3.29,0,3.909,3.909,0,0,0,3.913-3.913V535.86A3.909,3.909,0,0,0,304.5,531.947Zm-3.853,3.35a.839.839,0,0,1-1.215-1.156.839.839,0,1,1,1.215,1.156Z" transform="translate(-208.111 4852.959)" fill="#fff"/>
      </g>
    </g>
  </g>
</svg>
