<svg xmlns="http://www.w3.org/2000/svg" xmlns:xlink="http://www.w3.org/1999/xlink" width="113.061" height="29" viewBox="0 0 113.061 29">
  <defs>
    <linearGradient id="linear-gradient" x1="0.274" y1="0.073" x2="0.722" y2="0.919" gradientUnits="objectBoundingBox">
      <stop offset="0" stop-color="#ff7600"/>
      <stop offset="1" stop-color="#fcdf00"/>
    </linearGradient>
  </defs>
  <g id="logo-animaker" transform="translate(-179 -5206)">
    <rect id="Rectangle_27583" data-name="Rectangle 27583" width="29" height="29" rx="7" transform="translate(179 5206)" fill="url(#linear-gradient)"/>
    <path id="Path_82999" data-name="Path 82999" d="M907.817,335.428h0l-6.295-3.636a2.735,2.735,0,0,0-4.1,2.37v7.261a2.729,2.729,0,0,0,2.72,2.739h0a2.735,2.735,0,0,0,1.377-.371l6.295-3.634a2.738,2.738,0,0,0,0-4.736Z" transform="translate(-709.42 4882.574)" fill="#fff"/>
    <path id="Text_Animaker" data-name="Text Animaker" d="M1.72-.914a2,2,0,0,1-.7-.131,1.782,1.782,0,0,1-.6-.357A.7.7,0,0,1,.18-1.929,1.525,1.525,0,0,1,.2-2.117L3.824-13.932a1.011,1.011,0,0,1,.592-.62,2.38,2.38,0,0,1,.986-.207,2.361,2.361,0,0,1,1,.207,1.012,1.012,0,0,1,.582.62L10.605-2.117a.8.8,0,0,1,.038.188.7.7,0,0,1-.254.517,1.8,1.8,0,0,1-.61.366,2,2,0,0,1-.7.131,1.188,1.188,0,0,1-.517-.1A.555.555,0,0,1,8.276-1.4L7.562-3.9H3.242l-.7,2.5a.55.55,0,0,1-.3.385A1.251,1.251,0,0,1,1.72-.914Zm2.047-4.9H7.036L5.4-11.584Zm9.167,4.9a1.439,1.439,0,0,1-.864-.244.671.671,0,0,1-.338-.526v-7.4a.62.62,0,0,1,.338-.545,1.635,1.635,0,0,1,.864-.207,1.341,1.341,0,0,1,.761.207.629.629,0,0,1,.31.545v.564a2.754,2.754,0,0,1,.93-.986,2.753,2.753,0,0,1,1.587-.441,2.742,2.742,0,0,1,1.615.517,3.729,3.729,0,0,1,1.174,1.381,4.15,4.15,0,0,1,.441,1.916v4.452a.62.62,0,0,1-.376.573,1.791,1.791,0,0,1-.845.2,1.787,1.787,0,0,1-.808-.2.62.62,0,0,1-.394-.573V-6.136a1.594,1.594,0,0,0-.216-.808,1.89,1.89,0,0,0-.592-.629,1.446,1.446,0,0,0-.826-.254,1.445,1.445,0,0,0-.733.207,1.622,1.622,0,0,0-.582.582,1.721,1.721,0,0,0-.225.9v4.452a.668.668,0,0,1-.357.526A1.493,1.493,0,0,1,12.934-.914Zm9.824-10.914a1.333,1.333,0,0,1-.939-.366,1.1,1.1,0,0,1-.394-.817,1.076,1.076,0,0,1,.394-.836,1.373,1.373,0,0,1,.939-.348,1.33,1.33,0,0,1,.939.348,1.1,1.1,0,0,1,.376.836,1.119,1.119,0,0,1-.376.817A1.292,1.292,0,0,1,22.758-11.828Zm0,10.914a1.439,1.439,0,0,1-.864-.244.671.671,0,0,1-.338-.526v-7.4a.62.62,0,0,1,.338-.545,1.635,1.635,0,0,1,.864-.207,1.7,1.7,0,0,1,.864.207.616.616,0,0,1,.357.545v7.4a.668.668,0,0,1-.357.526A1.493,1.493,0,0,1,22.758-.914Zm4.283,0a1.439,1.439,0,0,1-.864-.244.671.671,0,0,1-.338-.526v-7.4a.62.62,0,0,1,.338-.545,1.635,1.635,0,0,1,.864-.207,1.341,1.341,0,0,1,.761.207.629.629,0,0,1,.31.545v.564a3.239,3.239,0,0,1,.939-.986A2.621,2.621,0,0,1,30.61-9.95a2.142,2.142,0,0,1,1.428.526,3.143,3.143,0,0,1,.92,1.352,3.406,3.406,0,0,1,1.249-1.418,2.992,2.992,0,0,1,1.568-.46,3.185,3.185,0,0,1,1.625.441,3.346,3.346,0,0,1,1.24,1.3,4.187,4.187,0,0,1,.479,2.076v4.452a.668.668,0,0,1-.357.526,1.493,1.493,0,0,1-.864.244,1.46,1.46,0,0,1-.845-.244.668.668,0,0,1-.357-.526V-6.136a1.861,1.861,0,0,0-.216-.939,1.482,1.482,0,0,0-.573-.573,1.5,1.5,0,0,0-.733-.2,1.346,1.346,0,0,0-.7.2,1.625,1.625,0,0,0-.554.573,1.759,1.759,0,0,0-.225.92v4.489a.6.6,0,0,1-.385.573,1.964,1.964,0,0,1-.836.178,1.941,1.941,0,0,1-.808-.178.6.6,0,0,1-.394-.573V-6.136a1.78,1.78,0,0,0-.216-.9,1.574,1.574,0,0,0-.564-.582,1.428,1.428,0,0,0-.742-.207,1.448,1.448,0,0,0-.714.188,1.454,1.454,0,0,0-.554.564,1.861,1.861,0,0,0-.216.939v4.452a.668.668,0,0,1-.357.526A1.493,1.493,0,0,1,27.041-.914Zm15.8.169a2.579,2.579,0,0,1-1.719-.61A2.334,2.334,0,0,1,40.4-3.244a2.374,2.374,0,0,1,.554-1.672,3.019,3.019,0,0,1,1.54-.845A9.55,9.55,0,0,1,44.773-6h.77v-.244a2.135,2.135,0,0,0-.16-.808,1.534,1.534,0,0,0-.507-.657,1.607,1.607,0,0,0-.986-.263,3.339,3.339,0,0,0-1.1.141,2.47,2.47,0,0,0-.592.291.75.75,0,0,1-.451.15.669.669,0,0,1-.61-.394,1.663,1.663,0,0,1-.216-.808.864.864,0,0,1,.479-.7,3.8,3.8,0,0,1,1.174-.479,5.713,5.713,0,0,1,1.352-.169,4.561,4.561,0,0,1,2.348.526,3.211,3.211,0,0,1,1.287,1.352,4.01,4.01,0,0,1,.4,1.784v4.6a.649.649,0,0,1-.338.545,1.492,1.492,0,0,1-.845.225A1.291,1.291,0,0,1,46-1.14a.66.66,0,0,1-.31-.545v-.545A5.784,5.784,0,0,1,44.5-1.2,2.959,2.959,0,0,1,42.839-.745Zm.977-1.8a1.414,1.414,0,0,0,.789-.263,2.367,2.367,0,0,0,.667-.676,1.547,1.547,0,0,0,.272-.864v-.394h-.282a8.955,8.955,0,0,0-1.183.075,1.965,1.965,0,0,0-.911.329.9.9,0,0,0-.348.78.95.95,0,0,0,.291.77A1.06,1.06,0,0,0,43.815-2.549ZM50.972-.914a1.406,1.406,0,0,1-.845-.244.671.671,0,0,1-.338-.526v-12.6a.62.62,0,0,1,.338-.545,1.6,1.6,0,0,1,.845-.207,1.738,1.738,0,0,1,.883.207.616.616,0,0,1,.357.545v7.871l3.55-3.325a.637.637,0,0,1,.47-.188,1,1,0,0,1,.554.178,1.594,1.594,0,0,1,.451.441.957.957,0,0,1,.178.545.653.653,0,0,1-.047.235.526.526,0,0,1-.16.216l-2.217,2.01,2.78,3.945a.739.739,0,0,1,.131.394.9.9,0,0,1-.225.564,1.84,1.84,0,0,1-.545.46,1.269,1.269,0,0,1-.62.178.7.7,0,0,1-.6-.319L53.4-4.821,52.212-3.751v2.066a.668.668,0,0,1-.357.526A1.527,1.527,0,0,1,50.972-.914Zm12.1.169a5.5,5.5,0,0,1-2.357-.479,3.833,3.833,0,0,1-1.606-1.352A3.555,3.555,0,0,1,58.523-4.6v-1.6a3.367,3.367,0,0,1,.554-1.869,4.118,4.118,0,0,1,1.484-1.371,4.2,4.2,0,0,1,2.076-.517,4.135,4.135,0,0,1,1.925.451,3.826,3.826,0,0,1,1.418,1.24,3.16,3.16,0,0,1,.545,1.841,1.951,1.951,0,0,1-.263,1.155,1.1,1.1,0,0,1-.667.432,4.07,4.07,0,0,1-.836.085H60.946v.282a1.6,1.6,0,0,0,.61,1.305,2.432,2.432,0,0,0,1.587.5,2.5,2.5,0,0,0,1.033-.188q.413-.188.714-.357a1.158,1.158,0,0,1,.564-.169.7.7,0,0,1,.488.188,1.309,1.309,0,0,1,.319.441,1.117,1.117,0,0,1,.113.441,1,1,0,0,1-.4.686A3.268,3.268,0,0,1,64.825-1,5.444,5.444,0,0,1,63.069-.745ZM60.946-6.174h2.742a.7.7,0,0,0,.441-.1.518.518,0,0,0,.122-.4,1.357,1.357,0,0,0-.225-.77,1.531,1.531,0,0,0-.6-.526,1.822,1.822,0,0,0-.826-.188,1.859,1.859,0,0,0-.808.178,1.557,1.557,0,0,0-.61.507,1.306,1.306,0,0,0-.235.78Zm8.209,5.26a1.406,1.406,0,0,1-.845-.244.671.671,0,0,1-.338-.526v-7.4a.62.62,0,0,1,.338-.545,1.6,1.6,0,0,1,.845-.207,1.376,1.376,0,0,1,.78.207.629.629,0,0,1,.31.545v.77a3.236,3.236,0,0,1,.554-.78,3.181,3.181,0,0,1,.8-.61,1.982,1.982,0,0,1,.958-.244h.582a.791.791,0,0,1,.62.31,1.109,1.109,0,0,1,.263.742,1.136,1.136,0,0,1-.263.761.791.791,0,0,1-.62.31h-.582a1.768,1.768,0,0,0-1.024.348,2.622,2.622,0,0,0-.817.958,3.147,3.147,0,0,0-.319,1.475v3.362a.668.668,0,0,1-.357.526A1.527,1.527,0,0,1,69.155-.914Z" transform="translate(218.041 5228.04)" fill="#2d2d2d"/>
  </g>
</svg>
