<svg xmlns="http://www.w3.org/2000/svg" xmlns:xlink="http://www.w3.org/1999/xlink" width="113.68" height="29" viewBox="0 0 113.68 29">
  <defs>
    <linearGradient id="linear-gradient" x1="0.157" y1="0.123" x2="0.903" y2="0.944" gradientUnits="objectBoundingBox">
      <stop offset="0" stop-color="#f67062"/>
      <stop offset="1" stop-color="#fc5296"/>
    </linearGradient>
  </defs>
  <g id="logo-picmaker" transform="translate(-863 -5300)">
    <g id="Group_69644" data-name="Group 69644" transform="translate(6639 4927.384)">
      <g id="Group_70149" data-name="Group 70149">
        <path id="Path_60429" data-name="Path 60429" d="M218.965,61.081a1.912,1.912,0,0,1-.894-.2.661.661,0,0,1-.4-.618V47.5a.729.729,0,0,1,.268-.57,1.05,1.05,0,0,1,.709-.236h3.936a5.713,5.713,0,0,1,2.272.433,3.4,3.4,0,0,1,1.612,1.41,4.955,4.955,0,0,1,.59,2.589v.117a4.929,4.929,0,0,1-.6,2.6,3.513,3.513,0,0,1-1.666,1.422,6,6,0,0,1-2.353.443h-2.207v4.545a.663.663,0,0,1-.4.618A1.813,1.813,0,0,1,218.965,61.081Zm1.259-7.381h2.2a2.057,2.057,0,0,0,1.517-.55,2.338,2.338,0,0,0,.55-1.712v-.216a2.369,2.369,0,0,0-.55-1.722,2.031,2.031,0,0,0-1.517-.562h-2.2Z" transform="translate(-5954.228 333.335)" fill="#2d2d2d"/>
        <path id="Path_60430" data-name="Path 60430" d="M271.809,51.484a1.39,1.39,0,0,1-.983-.383,1.15,1.15,0,0,1-.415-.856,1.126,1.126,0,0,1,.415-.876,1.428,1.428,0,0,1,.983-.373,1.41,1.41,0,0,1,.975.365,1.14,1.14,0,0,1,.4.876,1.164,1.164,0,0,1-.4.856A1.364,1.364,0,0,1,271.809,51.484Zm0,11.434a1.5,1.5,0,0,1-.9-.256.711.711,0,0,1-.355-.572V54.357a.647.647,0,0,1,.355-.57,1.7,1.7,0,0,1,.9-.216,1.763,1.763,0,0,1,.9.216.647.647,0,0,1,.375.57V62.09a.711.711,0,0,1-.375.57,1.553,1.553,0,0,1-.9.258Z" transform="translate(-5996.347 331.498)" fill="#2d2d2d"/>
        <path id="Path_60431" data-name="Path 60431" d="M296,80.751a4.952,4.952,0,0,1-2.442-.532,3.342,3.342,0,0,1-1.4-1.446,4.57,4.57,0,0,1-.451-2.051V75.141a4.649,4.649,0,0,1,.443-2.057,3.255,3.255,0,0,1,1.4-1.446,4.911,4.911,0,0,1,2.417-.532,5.64,5.64,0,0,1,1.634.216,3.1,3.1,0,0,1,1.116.566,1,1,0,0,1,.413.747,1.276,1.276,0,0,1-.129.522,1.612,1.612,0,0,1-.353.5.731.731,0,0,1-.522.216.84.84,0,0,1-.443-.137,3.764,3.764,0,0,0-.58-.276,2.7,2.7,0,0,0-.945-.137,1.913,1.913,0,0,0-1.456.481,1.867,1.867,0,0,0-.453,1.33v1.587a1.867,1.867,0,0,0,.453,1.33,1.952,1.952,0,0,0,1.477.481,2.286,2.286,0,0,0,.945-.157,5.968,5.968,0,0,0,.56-.3.888.888,0,0,1,.463-.137.925.925,0,0,1,.6.2,1.287,1.287,0,0,1,.375.483,1.3,1.3,0,0,1,.129.522,1.056,1.056,0,0,1-.423.768,3.3,3.3,0,0,1-1.162.6,5.439,5.439,0,0,1-1.67.23Z" transform="translate(-6013.354 313.844)" fill="#2d2d2d"/>
        <path id="Path_60432" data-name="Path 60432" d="M336.928,80.551a1.5,1.5,0,0,1-.9-.256.717.717,0,0,1-.355-.57V71.99a.651.651,0,0,1,.355-.57,1.7,1.7,0,0,1,.9-.216,1.411,1.411,0,0,1,.806.216.661.661,0,0,1,.324.57v.59a3.445,3.445,0,0,1,.985-1.033,2.754,2.754,0,0,1,1.631-.461,2.25,2.25,0,0,1,1.5.55,3.292,3.292,0,0,1,.963,1.41,3.586,3.586,0,0,1,1.309-1.487,3.149,3.149,0,0,1,1.644-.481,3.36,3.36,0,0,1,1.7.461,3.511,3.511,0,0,1,1.3,1.36,4.383,4.383,0,0,1,.494,2.192v4.633a.711.711,0,0,1-.375.57,1.557,1.557,0,0,1-.9.256,1.525,1.525,0,0,1-.886-.256.711.711,0,0,1-.375-.57V75.09a1.944,1.944,0,0,0-.228-.993,1.535,1.535,0,0,0-.6-.6,1.559,1.559,0,0,0-.767-.2,1.41,1.41,0,0,0-.727.2,1.656,1.656,0,0,0-.59.6,1.84,1.84,0,0,0-.236.963v4.684a.639.639,0,0,1-.4.62,2.073,2.073,0,0,1-1.722,0,.639.639,0,0,1-.413-.62V75.09a1.869,1.869,0,0,0-.226-.945,1.668,1.668,0,0,0-.59-.6,1.513,1.513,0,0,0-2.105.572,1.944,1.944,0,0,0-.224.977v4.634a.713.713,0,0,1-.373.57A1.563,1.563,0,0,1,336.928,80.551Z" transform="translate(-6048.458 313.865)" fill="#2d2d2d"/>
        <path id="Path_60433" data-name="Path 60433" d="M413.938,80.764a2.7,2.7,0,0,1-1.8-.641,2.441,2.441,0,0,1-.757-1.978,2.526,2.526,0,0,1,.58-1.751,3.173,3.173,0,0,1,1.612-.886,10.072,10.072,0,0,1,2.391-.256h.806v-.258a2.256,2.256,0,0,0-.167-.846,1.646,1.646,0,0,0-.532-.689,1.69,1.69,0,0,0-1.033-.274,3.476,3.476,0,0,0-1.15.147,2.569,2.569,0,0,0-.62.3.78.78,0,0,1-.473.159.7.7,0,0,1-.639-.415,1.733,1.733,0,0,1-.228-.846.9.9,0,0,1,.5-.737,3.92,3.92,0,0,1,1.229-.5,5.955,5.955,0,0,1,1.41-.177,4.789,4.789,0,0,1,2.46.55,3.369,3.369,0,0,1,1.347,1.41,4.2,4.2,0,0,1,.423,1.869v4.809a.7.7,0,0,1-.355.59,1.565,1.565,0,0,1-.886.236,1.354,1.354,0,0,1-.806-.236.711.711,0,0,1-.324-.59v-.552a6.043,6.043,0,0,1-1.251,1.082A3.08,3.08,0,0,1,413.938,80.764Zm1.023-1.89a1.483,1.483,0,0,0,.826-.276,2.444,2.444,0,0,0,.7-.709,1.626,1.626,0,0,0,.286-.9v-.4h-.3a9.375,9.375,0,0,0-1.239.079,2.049,2.049,0,0,0-.955.344.941.941,0,0,0-.365.806,1.007,1.007,0,0,0,.306.806,1.106,1.106,0,0,0,.737.256Z" transform="translate(-6108.918 313.831)" fill="#2d2d2d"/>
        <path id="Path_60434" data-name="Path 60434" d="M461.46,59.443a1.471,1.471,0,0,1-.886-.256.717.717,0,0,1-.355-.57V45.431a.651.651,0,0,1,.359-.57,1.666,1.666,0,0,1,.886-.216,1.813,1.813,0,0,1,.927.216.647.647,0,0,1,.375.57v8.247l3.719-3.485a.665.665,0,0,1,.492-.2,1.044,1.044,0,0,1,.58.187,1.642,1.642,0,0,1,.475.467,1.007,1.007,0,0,1,.187.57.7.7,0,0,1-.05.246.548.548,0,0,1-.167.227l-2.331,2.105,2.913,4.134a.765.765,0,0,1,.139.4.943.943,0,0,1-.238.59,1.935,1.935,0,0,1-.57.481,1.327,1.327,0,0,1-.649.187.731.731,0,0,1-.63-.334L464,55.37l-1.239,1.1v2.143a.711.711,0,0,1-.375.57,1.6,1.6,0,0,1-.929.258Z" transform="translate(-6147.918 334.973)" fill="#2d2d2d"/>
        <path id="Path_60435" data-name="Path 60435" d="M510.407,80.762a5.771,5.771,0,0,1-2.476-.5,4.015,4.015,0,0,1-1.682-1.41,3.725,3.725,0,0,1-.6-2.115V75.061a3.526,3.526,0,0,1,.58-1.958,4.305,4.305,0,0,1,1.555-1.436,4.4,4.4,0,0,1,2.166-.55,4.343,4.343,0,0,1,2.014.471,4.029,4.029,0,0,1,1.485,1.3,3.314,3.314,0,0,1,.572,1.93,2.035,2.035,0,0,1-.276,1.209,1.144,1.144,0,0,1-.7.453,4.309,4.309,0,0,1-.876.089h-3.982v.3a1.674,1.674,0,0,0,.641,1.366,2.54,2.54,0,0,0,1.662.522,2.619,2.619,0,0,0,1.082-.2c.29-.131.538-.256.749-.375a1.209,1.209,0,0,1,.59-.177.741.741,0,0,1,.512.2,1.378,1.378,0,0,1,.334.461,1.174,1.174,0,0,1,.117.463,1.047,1.047,0,0,1-.423.719,3.445,3.445,0,0,1-1.209.649A5.688,5.688,0,0,1,510.407,80.762Zm-2.216-5.689h2.873a.734.734,0,0,0,.463-.107.546.546,0,0,0,.129-.423,1.374,1.374,0,0,0-.248-.806,1.688,1.688,0,0,0-.629-.55,1.853,1.853,0,0,0-.856-.2,1.94,1.94,0,0,0-.846.187,1.636,1.636,0,0,0-.649.538,1.372,1.372,0,0,0-.246.806Z" transform="translate(-6184.192 313.833)" fill="#2d2d2d"/>
        <path id="Path_60436" data-name="Path 60436" d="M556.028,80.581a1.463,1.463,0,0,1-.884-.256.711.711,0,0,1-.355-.57V72.02a.647.647,0,0,1,.355-.57,1.658,1.658,0,0,1,.884-.216,1.442,1.442,0,0,1,.818.216.661.661,0,0,1,.324.57v.806a3.425,3.425,0,0,1,1.41-1.456,2.065,2.065,0,0,1,1.008-.256h.6a.836.836,0,0,1,.651.324,1.164,1.164,0,0,1,.274.778,1.194,1.194,0,0,1-.274.806.836.836,0,0,1-.651.324h-.6a1.843,1.843,0,0,0-1.07.365,2.73,2.73,0,0,0-.856,1.007,3.29,3.29,0,0,0-.334,1.545v3.491a.711.711,0,0,1-.375.57A1.591,1.591,0,0,1,556.028,80.581Z" transform="translate(-6223.438 313.835)" fill="#2d2d2d"/>
      </g>
    </g>
    <g id="Group_70151" data-name="Group 70151" transform="translate(782 -41)">
      <rect id="Rectangle_27584" data-name="Rectangle 27584" width="29" height="29" rx="7" transform="translate(81 5341)" fill="url(#linear-gradient)"/>
      <g id="Group_54780" data-name="Group 54780" transform="translate(85.035 5345.049)">
        <path id="Path_60425" data-name="Path 60425" d="M148.217,118.9h2.142a.608.608,0,0,1,.608.608v2.142a2.847,2.847,0,0,1-2.847,2.847h-2.142a.608.608,0,0,1-.608-.608v-2.142A2.847,2.847,0,0,1,148.217,118.9Z" transform="translate(-134.191 -114.579)" fill="#fff"/>
        <path id="Path_60426" data-name="Path 60426" d="M2.847,0H4.988A.608.608,0,0,1,5.6.608V2.75A2.847,2.847,0,0,1,2.75,5.6H.608A.608.608,0,0,1,0,4.988V2.847A2.847,2.847,0,0,1,2.847,0Z" transform="translate(4.299 9.795) rotate(-90)" fill="#fff" style="mix-blend-mode: normal;isolation: isolate"/>
        <path id="Path_60427" data-name="Path 60427" d="M2.847,0H4.988A.608.608,0,0,1,5.6.608V2.75A2.847,2.847,0,0,1,2.75,5.6H.608A.608.608,0,0,1,0,4.988V2.847A2.847,2.847,0,0,1,2.847,0Z" transform="translate(11.176 16.701) rotate(-90)" fill="#fff" style="mix-blend-mode: normal;isolation: isolate"/>
        <path id="Path_60428" data-name="Path 60428" d="M2.828,0h2.16A.608.608,0,0,1,5.6.608V2.75A2.847,2.847,0,0,1,2.75,5.6H.608A.608.608,0,0,1,0,4.988V2.847A2.847,2.847,0,0,1,2.847,0Z" transform="translate(9.75 16.704) rotate(180)" fill="#fff" style="mix-blend-mode: normal;isolation: isolate"/>
      </g>
    </g>
  </g>
</svg>
