<svg xmlns="http://www.w3.org/2000/svg" xmlns:xlink="http://www.w3.org/1999/xlink" width="158.916" height="29" viewBox="0 0 158.916 29">
  <defs>
    <linearGradient id="linear-gradient" x1="-0.207" y1="-0.098" x2="0.823" y2="0.872" gradientUnits="objectBoundingBox">
      <stop offset="0" stop-color="#ff7600"/>
      <stop offset="1" stop-color="#fcdf00"/>
    </linearGradient>
  </defs>
  <g id="logo-voice" transform="translate(-182 -6100)">
    <g id="Group_69647" data-name="Group 69647" transform="translate(-4905 -131.529)">
      <g id="Group_69622" data-name="Group 69622" transform="translate(5126.645 6238.529)">
        <path id="Path_88220" data-name="Path 88220" d="M376.975,286.677a2.022,2.022,0,0,1-.7-.133,1.8,1.8,0,0,1-.609-.361.7.7,0,0,1-.247-.533,1.545,1.545,0,0,1,.019-.19L379.1,273.5a1.024,1.024,0,0,1,.6-.628,2.511,2.511,0,0,1,2.007,0,1.026,1.026,0,0,1,.59.628l3.671,11.963a.814.814,0,0,1,.038.19.7.7,0,0,1-.257.523,1.822,1.822,0,0,1-.618.371,2.024,2.024,0,0,1-.7.133,1.2,1.2,0,0,1-.523-.1.561.561,0,0,1-.295-.39l-.723-2.529h-4.375l-.7,2.529a.557.557,0,0,1-.3.39A1.263,1.263,0,0,1,376.975,286.677Zm2.073-4.964h3.309l-1.655-5.839Z" transform="translate(-375.415 -272.375)" fill="#fff"/>
        <path id="Path_88221" data-name="Path 88221" d="M436.711,306.816a1.457,1.457,0,0,1-.875-.247.691.691,0,0,1-.342-.551v-7.475a.628.628,0,0,1,.342-.552,1.657,1.657,0,0,1,.875-.209,1.359,1.359,0,0,1,.77.209.637.637,0,0,1,.314.552v.57a2.916,2.916,0,0,1,4.184-.922,3.782,3.782,0,0,1,1.189,1.4,4.2,4.2,0,0,1,.447,1.94v4.489a.641.641,0,0,1-.38.6,1.853,1.853,0,0,1-1.674,0,.64.64,0,0,1-.4-.6v-4.489a1.619,1.619,0,0,0-.219-.818,1.918,1.918,0,0,0-.6-.637,1.457,1.457,0,0,0-1.579-.048,1.642,1.642,0,0,0-.59.59,1.742,1.742,0,0,0-.228.913v4.489a.686.686,0,0,1-.361.551A1.511,1.511,0,0,1,436.711,306.816Z" transform="translate(-423.797 -292.514)" fill="#fff"/>
        <path id="Path_88222" data-name="Path 88222" d="M487.25,277.986a1.35,1.35,0,0,1-.951-.371,1.11,1.11,0,0,1-.4-.827,1.09,1.09,0,0,1,.4-.847,1.391,1.391,0,0,1,.951-.352,1.348,1.348,0,0,1,.951.352,1.113,1.113,0,0,1,.38.847,1.133,1.133,0,0,1-.38.827A1.308,1.308,0,0,1,487.25,277.986Zm0,11.05a1.458,1.458,0,0,1-.875-.247.69.69,0,0,1-.342-.551v-7.475a.628.628,0,0,1,.342-.552,1.657,1.657,0,0,1,.875-.209,1.72,1.72,0,0,1,.875.209.624.624,0,0,1,.361.552v7.475a.686.686,0,0,1-.361.551A1.512,1.512,0,0,1,487.25,289.037Z" transform="translate(-464.389 -274.734)" fill="#fff"/>
        <path id="Path_88223" data-name="Path 88223" d="M510.075,306.816a1.457,1.457,0,0,1-.875-.247.69.69,0,0,1-.342-.551v-7.475a.628.628,0,0,1,.342-.552,1.656,1.656,0,0,1,.875-.209,1.358,1.358,0,0,1,.77.209.637.637,0,0,1,.314.552v.57a3.287,3.287,0,0,1,.951-1,2.655,2.655,0,0,1,1.578-.447,2.171,2.171,0,0,1,1.446.533,3.183,3.183,0,0,1,.932,1.369,3.452,3.452,0,0,1,1.265-1.436,3.031,3.031,0,0,1,1.588-.466,3.228,3.228,0,0,1,1.645.447,3.389,3.389,0,0,1,1.255,1.313,4.238,4.238,0,0,1,.485,2.1v4.489a.686.686,0,0,1-.361.551,1.511,1.511,0,0,1-.875.247,1.477,1.477,0,0,1-.856-.247.686.686,0,0,1-.361-.551v-4.489a1.886,1.886,0,0,0-.219-.951,1.5,1.5,0,0,0-.58-.58,1.516,1.516,0,0,0-.742-.2,1.38,1.38,0,0,0-.7.2,1.618,1.618,0,0,0-.57.58,1.783,1.783,0,0,0-.228.932v4.527a.617.617,0,0,1-.39.6,1.987,1.987,0,0,1-.846.18,1.964,1.964,0,0,1-.818-.18.616.616,0,0,1-.4-.6v-4.508a1.8,1.8,0,0,0-.219-.913,1.6,1.6,0,0,0-.57-.59,1.448,1.448,0,0,0-.751-.209,1.46,1.46,0,0,0-1.284.761,1.882,1.882,0,0,0-.219.951v4.489a.686.686,0,0,1-.361.551A1.51,1.51,0,0,1,510.075,306.816Z" transform="translate(-482.877 -292.514)" fill="#fff"/>
        <path id="Path_88224" data-name="Path 88224" d="M587.039,306.987a2.609,2.609,0,0,1-1.74-.618,2.362,2.362,0,0,1-.732-1.911,2.4,2.4,0,0,1,.561-1.692,3.058,3.058,0,0,1,1.559-.856,9.678,9.678,0,0,1,2.311-.247h.78v-.248a2.164,2.164,0,0,0-.162-.818,1.557,1.557,0,0,0-.514-.666,1.628,1.628,0,0,0-1-.266,3.375,3.375,0,0,0-1.113.143,2.508,2.508,0,0,0-.6.295.76.76,0,0,1-.457.152.678.678,0,0,1-.618-.4,1.683,1.683,0,0,1-.219-.818.874.874,0,0,1,.485-.713,3.846,3.846,0,0,1,1.189-.485,5.784,5.784,0,0,1,1.37-.171,4.622,4.622,0,0,1,2.377.533,3.255,3.255,0,0,1,1.3,1.369,4.064,4.064,0,0,1,.409,1.807v4.641a.67.67,0,0,1-.343.57,1.51,1.51,0,0,1-.856.228,1.306,1.306,0,0,1-.789-.228.682.682,0,0,1-.314-.57v-.533a5.843,5.843,0,0,1-1.208,1.046A3,3,0,0,1,587.039,306.987Zm.989-1.826a1.431,1.431,0,0,0,.8-.266,2.4,2.4,0,0,0,.675-.685,1.568,1.568,0,0,0,.276-.875v-.4h-.285a9.09,9.09,0,0,0-1.2.076,1.988,1.988,0,0,0-.922.333.912.912,0,0,0-.352.789.961.961,0,0,0,.295.78A1.074,1.074,0,0,0,588.029,305.162Z" transform="translate(-543.846 -292.514)" fill="#fff"/>
        <path id="Path_88225" data-name="Path 88225" d="M634.609,285.5a1.424,1.424,0,0,1-.856-.247.691.691,0,0,1-.342-.551V271.955a.627.627,0,0,1,.342-.552,1.617,1.617,0,0,1,.856-.209,1.762,1.762,0,0,1,.894.209.624.624,0,0,1,.361.552v7.969l3.595-3.366a.645.645,0,0,1,.475-.19,1.016,1.016,0,0,1,.561.181,1.625,1.625,0,0,1,.456.447.97.97,0,0,1,.181.552.667.667,0,0,1-.048.238.532.532,0,0,1-.162.219l-2.244,2.035,2.815,3.994a.751.751,0,0,1,.133.4.914.914,0,0,1-.228.571,1.857,1.857,0,0,1-.552.466,1.284,1.284,0,0,1-.628.181.709.709,0,0,1-.609-.323l-2.549-3.766-1.2,1.065V284.7a.686.686,0,0,1-.361.551A1.547,1.547,0,0,1,634.609,285.5Z" transform="translate(-583.181 -271.194)" fill="#fff"/>
        <path id="Path_88226" data-name="Path 88226" d="M683.44,306.987a5.575,5.575,0,0,1-2.387-.485,3.879,3.879,0,0,1-1.626-1.369,3.6,3.6,0,0,1-.589-2.045v-1.617a3.408,3.408,0,0,1,.561-1.892,4.17,4.17,0,0,1,1.5-1.389,4.254,4.254,0,0,1,2.1-.523,4.19,4.19,0,0,1,1.949.456,3.88,3.88,0,0,1,1.436,1.255,3.2,3.2,0,0,1,.552,1.864,1.976,1.976,0,0,1-.266,1.17,1.112,1.112,0,0,1-.675.438,4.123,4.123,0,0,1-.846.086h-3.861v.285a1.622,1.622,0,0,0,.618,1.322,2.46,2.46,0,0,0,1.607.5,2.525,2.525,0,0,0,1.046-.19q.419-.19.723-.361a1.172,1.172,0,0,1,.571-.171.713.713,0,0,1,.495.19,1.326,1.326,0,0,1,.323.447,1.131,1.131,0,0,1,.114.447,1.009,1.009,0,0,1-.409.694,3.31,3.31,0,0,1-1.16.628A5.514,5.514,0,0,1,683.44,306.987Zm-2.149-5.5h2.777a.709.709,0,0,0,.447-.1.524.524,0,0,0,.124-.409,1.333,1.333,0,0,0-.238-.78,1.648,1.648,0,0,0-.609-.533,1.789,1.789,0,0,0-.827-.19,1.883,1.883,0,0,0-.818.181,1.579,1.579,0,0,0-.618.514,1.321,1.321,0,0,0-.238.789Z" transform="translate(-619.762 -292.514)" fill="#fff"/>
        <path id="Path_88227" data-name="Path 88227" d="M729.173,306.816a1.424,1.424,0,0,1-.856-.247.691.691,0,0,1-.342-.551v-7.475a.628.628,0,0,1,.342-.552,1.617,1.617,0,0,1,.856-.209,1.4,1.4,0,0,1,.789.209.636.636,0,0,1,.314.552v.78a3.273,3.273,0,0,1,.561-.789,3.222,3.222,0,0,1,.808-.618,2.009,2.009,0,0,1,.97-.247h.59a.8.8,0,0,1,.628.314,1.123,1.123,0,0,1,.267.751,1.15,1.15,0,0,1-.267.77.8.8,0,0,1-.628.314h-.59a1.791,1.791,0,0,0-1.037.352,2.657,2.657,0,0,0-.827.97,3.185,3.185,0,0,0-.323,1.493v3.386a.686.686,0,0,1-.361.551A1.546,1.546,0,0,1,729.173,306.816Z" transform="translate(-659.333 -292.514)" fill="#fff"/>
        <path id="Path_88228" data-name="Path 88228" d="M785.349,287.263a2.407,2.407,0,0,1-1-.209.959.959,0,0,1-.58-.628l-3.69-11.963a.8.8,0,0,1-.038-.19.7.7,0,0,1,.247-.532,1.79,1.79,0,0,1,.618-.362,2.113,2.113,0,0,1,.713-.133,1.269,1.269,0,0,1,.533.1.507.507,0,0,1,.285.39l2.91,10.308,2.891-10.308a.621.621,0,0,1,.314-.39,1.2,1.2,0,0,1,.523-.1,2.035,2.035,0,0,1,.7.133,1.919,1.919,0,0,1,.618.362.694.694,0,0,1,.257.532.446.446,0,0,1-.01.085.91.91,0,0,1-.029.1l-3.671,11.963a.96.96,0,0,1-.58.628A2.454,2.454,0,0,1,785.349,287.263Z" transform="translate(-701.263 -272.846)" fill="#fff"/>
        <path id="Path_88229" data-name="Path 88229" d="M837.879,306.987a3.978,3.978,0,0,1-2.035-.542,4.349,4.349,0,0,1-1.5-1.436,3.506,3.506,0,0,1-.571-1.921v-1.56a3.545,3.545,0,0,1,.552-1.911,4.244,4.244,0,0,1,5.611-1.427,4.249,4.249,0,0,1,1.5,1.4,3.476,3.476,0,0,1,.57,1.94v1.56a3.473,3.473,0,0,1-.57,1.9,4.407,4.407,0,0,1-1.512,1.445A3.974,3.974,0,0,1,837.879,306.987Zm0-2.149a1.5,1.5,0,0,0,.837-.247,1.834,1.834,0,0,0,.609-.656,1.716,1.716,0,0,0,.228-.846v-1.56a1.565,1.565,0,0,0-.228-.818,2.054,2.054,0,0,0-.6-.637,1.452,1.452,0,0,0-.846-.257,1.505,1.505,0,0,0-.837.247,1.8,1.8,0,0,0-.6.637,1.663,1.663,0,0,0-.219.827v1.56a1.769,1.769,0,0,0,.219.846,1.751,1.751,0,0,0,.6.656A1.5,1.5,0,0,0,837.879,304.838Z" transform="translate(-744.532 -292.514)" fill="#fff"/>
        <path id="Path_88230" data-name="Path 88230" d="M884.748,277.986a1.35,1.35,0,0,1-.951-.371,1.111,1.111,0,0,1-.4-.827,1.091,1.091,0,0,1,.4-.847,1.391,1.391,0,0,1,.951-.352,1.348,1.348,0,0,1,.951.352,1.113,1.113,0,0,1,.38.847,1.133,1.133,0,0,1-.38.827A1.308,1.308,0,0,1,884.748,277.986Zm0,11.05a1.458,1.458,0,0,1-.875-.247.69.69,0,0,1-.342-.551v-7.475a.628.628,0,0,1,.342-.552,1.657,1.657,0,0,1,.875-.209,1.718,1.718,0,0,1,.875.209.625.625,0,0,1,.362.552v7.475a.686.686,0,0,1-.362.551A1.511,1.511,0,0,1,884.748,289.037Z" transform="translate(-784.496 -274.734)" fill="#fff"/>
        <path id="Path_88231" data-name="Path 88231" d="M908.839,306.987a4.781,4.781,0,0,1-2.359-.513,3.222,3.222,0,0,1-1.35-1.4,4.421,4.421,0,0,1-.437-1.988v-1.522a4.5,4.5,0,0,1,.428-1.988,3.155,3.155,0,0,1,1.35-1.4,4.748,4.748,0,0,1,2.33-.513,5.414,5.414,0,0,1,1.578.209,2.994,2.994,0,0,1,1.084.552.964.964,0,0,1,.4.723,1.246,1.246,0,0,1-.123.5,1.538,1.538,0,0,1-.343.485.707.707,0,0,1-.5.209.819.819,0,0,1-.428-.133,3.641,3.641,0,0,0-.561-.266,2.578,2.578,0,0,0-.913-.133,1.855,1.855,0,0,0-1.407.466,1.8,1.8,0,0,0-.437,1.284v1.522a1.8,1.8,0,0,0,.437,1.284,1.882,1.882,0,0,0,1.427.466,2.193,2.193,0,0,0,.913-.152,5.8,5.8,0,0,0,.542-.285.85.85,0,0,1,.447-.133.9.9,0,0,1,.58.19,1.333,1.333,0,0,1,.485.97,1.013,1.013,0,0,1-.409.742,3.116,3.116,0,0,1-1.122.589A5.26,5.26,0,0,1,908.839,306.987Z" transform="translate(-801.645 -292.514)" fill="#fff"/>
        <path id="Path_88232" data-name="Path 88232" d="M951.011,306.987a5.574,5.574,0,0,1-2.387-.485A3.877,3.877,0,0,1,947,305.133a3.6,3.6,0,0,1-.59-2.045v-1.617a3.409,3.409,0,0,1,.561-1.892,4.171,4.171,0,0,1,1.5-1.389,4.255,4.255,0,0,1,2.1-.523,4.19,4.19,0,0,1,1.949.456,3.877,3.877,0,0,1,1.436,1.255,3.2,3.2,0,0,1,.552,1.864,1.976,1.976,0,0,1-.266,1.17,1.112,1.112,0,0,1-.675.438,4.123,4.123,0,0,1-.846.086h-3.861v.285a1.621,1.621,0,0,0,.618,1.322,2.46,2.46,0,0,0,1.607.5,2.525,2.525,0,0,0,1.046-.19q.419-.19.723-.361a1.172,1.172,0,0,1,.571-.171.713.713,0,0,1,.495.19,1.325,1.325,0,0,1,.323.447,1.131,1.131,0,0,1,.114.447,1.009,1.009,0,0,1-.409.694,3.312,3.312,0,0,1-1.16.628A5.516,5.516,0,0,1,951.011,306.987Zm-2.149-5.5h2.777a.709.709,0,0,0,.447-.1.524.524,0,0,0,.124-.409,1.333,1.333,0,0,0-.238-.78,1.648,1.648,0,0,0-.609-.533,1.789,1.789,0,0,0-.827-.19,1.883,1.883,0,0,0-.818.181,1.58,1.58,0,0,0-.618.514,1.321,1.321,0,0,0-.238.789Z" transform="translate(-835.239 -292.514)" fill="#fff"/>
      </g>
    </g>
    <g id="Group_70156" data-name="Group 70156" transform="translate(101 625)">
      <rect id="Rectangle_27588" data-name="Rectangle 27588" width="29" height="29" rx="7" transform="translate(81 5475)" fill="url(#linear-gradient)"/>
      <g id="Group_69628" data-name="Group 69628" transform="translate(90 5483)">
        <g id="Group_69623" data-name="Group 69623" transform="translate(4.705)">
          <path id="Path_88233" data-name="Path 88233" d="M304.616,352.358a.815.815,0,0,1-.815-.815V340.681a.815.815,0,0,1,1.629,0v10.862A.815.815,0,0,1,304.616,352.358Z" transform="translate(-303.801 -339.866)" fill="#fff"/>
        </g>
        <g id="Group_69624" data-name="Group 69624" transform="translate(2.353 2.308)">
          <path id="Path_88234" data-name="Path 88234" d="M295.817,356.241a.679.679,0,0,1-.679-.679v-6.517a.679.679,0,0,1,1.358,0v6.517A.679.679,0,0,1,295.817,356.241Z" transform="translate(-295.138 -348.366)" fill="#fff"/>
        </g>
        <g id="Group_69625" data-name="Group 69625" transform="translate(0 4.209)">
          <path id="Path_88235" data-name="Path 88235" d="M287.018,359.439a.543.543,0,0,1-.543-.543v-2.987a.543.543,0,1,1,1.086,0V358.9A.543.543,0,0,1,287.018,359.439Z" transform="translate(-286.475 -355.366)" fill="#fff"/>
        </g>
        <g id="Group_69626" data-name="Group 69626" transform="translate(7.329 2.308)">
          <path id="Path_88236" data-name="Path 88236" d="M314.144,356.241a.679.679,0,0,1-.679-.679v-6.517a.679.679,0,0,1,1.358,0v6.517A.679.679,0,0,1,314.144,356.241Z" transform="translate(-313.465 -348.366)" fill="#fff"/>
        </g>
        <g id="Group_69627" data-name="Group 69627" transform="translate(9.953 4.209)">
          <path id="Path_88237" data-name="Path 88237" d="M323.671,359.439a.543.543,0,0,1-.543-.543v-2.987a.543.543,0,1,1,1.086,0V358.9A.543.543,0,0,1,323.671,359.439Z" transform="translate(-323.128 -355.366)" fill="#fff"/>
        </g>
      </g>
    </g>
  </g>
</svg>
