<svg xmlns="http://www.w3.org/2000/svg" xmlns:xlink="http://www.w3.org/1999/xlink" width="115" height="29" viewBox="0 0 115 29">
  <defs>
    <linearGradient id="linear-gradient" x1="0.274" y1="0.073" x2="0.722" y2="0.919" gradientUnits="objectBoundingBox">
      <stop offset="0" stop-color="#3cf"/>
      <stop offset="1" stop-color="#d499ff"/>
    </linearGradient>
  </defs>
  <g id="logo-steve-ai" transform="translate(-178 -5300)">
    <g id="Group_63514" data-name="Group 63514" transform="translate(-92.56 5052.684)">
      <g id="Group_63511" data-name="Group 63511" transform="translate(309.781 253.316)">
        <path id="Path_88079" data-name="Path 88079" d="M535.953,314.086a8.022,8.022,0,0,1-2.742-.444,5.566,5.566,0,0,1-1.938-1.109,1.877,1.877,0,0,1-.713-1.342,1.755,1.755,0,0,1,.175-.713,1.946,1.946,0,0,1,.479-.654,1,1,0,0,1,.677-.268,1.087,1.087,0,0,1,.7.268c.218.18.468.39.747.63a4.1,4.1,0,0,0,1.028.632,4.091,4.091,0,0,0,2.789.046,2.19,2.19,0,0,0,.958-.665,1.75,1.75,0,0,0,.362-1.143,2,2,0,0,0-.4-1.262,3.42,3.42,0,0,0-1.073-.886q-.678-.373-1.471-.724t-1.6-.747a7.207,7.207,0,0,1-1.471-.958,4.284,4.284,0,0,1-1.075-1.377,4.461,4.461,0,0,1-.407-2.008,4.4,4.4,0,0,1,.5-2.195,4.139,4.139,0,0,1,1.331-1.435,5.786,5.786,0,0,1,1.833-.794,8.427,8.427,0,0,1,2.008-.245,11.821,11.821,0,0,1,1.273.081,9.019,9.019,0,0,1,1.471.292,3.67,3.67,0,0,1,1.214.572,1.111,1.111,0,0,1,.479.922,2.065,2.065,0,0,1-.128.654,1.884,1.884,0,0,1-.4.666.894.894,0,0,1-.688.292,1.394,1.394,0,0,1-.736-.222,6.021,6.021,0,0,0-.933-.444,4.419,4.419,0,0,0-1.554-.222,4.154,4.154,0,0,0-1.424.222,2.007,2.007,0,0,0-.91.607,1.516,1.516,0,0,0-.3.969,1.422,1.422,0,0,0,.409,1.028,3.824,3.824,0,0,0,1.075.747q.664.327,1.459.654a17.678,17.678,0,0,1,1.6.758,7.653,7.653,0,0,1,1.483,1.039,4.366,4.366,0,0,1,1.073,1.507,5.457,5.457,0,0,1,.4,2.206,5.074,5.074,0,0,1-.724,2.789,4.522,4.522,0,0,1-1.972,1.7A6.8,6.8,0,0,1,535.953,314.086Z" transform="translate(-530.56 -296.67)" fill="#fff"/>
        <path id="Path_88080" data-name="Path 88080" d="M614.276,319.856a4.949,4.949,0,0,1-3.21-.911,3.5,3.5,0,0,1-1.109-2.872V304.751a.765.765,0,0,1,.491-.677,2.138,2.138,0,0,1,1-.257,2.162,2.162,0,0,1,1.039.257.765.765,0,0,1,.479.677v4.015h2.755a.63.63,0,0,1,.572.338,1.551,1.551,0,0,1,0,1.518.63.63,0,0,1-.572.339h-2.755v5.112a1.293,1.293,0,0,0,.292.958,1.452,1.452,0,0,0,1.016.281h.911a1.161,1.161,0,0,1,.969.4,1.358,1.358,0,0,1,.315.864,1.392,1.392,0,0,1-.315.888,1.162,1.162,0,0,1-.969.4Z" transform="translate(-597.211 -302.65)" fill="#fff"/>
        <path id="Path_88081" data-name="Path 88081" d="M662.441,345.214a6.855,6.855,0,0,1-2.931-.6,4.761,4.761,0,0,1-2-1.681,4.413,4.413,0,0,1-.724-2.509v-1.985a4.187,4.187,0,0,1,.688-2.323,5.124,5.124,0,0,1,1.845-1.7,5.218,5.218,0,0,1,2.58-.642,5.147,5.147,0,0,1,2.393.56,4.767,4.767,0,0,1,1.763,1.541,3.934,3.934,0,0,1,.677,2.288,2.423,2.423,0,0,1-.327,1.435,1.369,1.369,0,0,1-.828.538,5.14,5.14,0,0,1-1.039.1H659.8v.349a1.993,1.993,0,0,0,.758,1.624,3.023,3.023,0,0,0,1.973.618,3.092,3.092,0,0,0,1.284-.234q.513-.233.886-.443a1.441,1.441,0,0,1,.7-.211.879.879,0,0,1,.608.234,1.633,1.633,0,0,1,.4.549,1.385,1.385,0,0,1,.14.548,1.238,1.238,0,0,1-.5.853,4.089,4.089,0,0,1-1.424.771A6.791,6.791,0,0,1,662.441,345.214Zm-2.638-6.748h3.408a.865.865,0,0,0,.548-.128.644.644,0,0,0,.153-.5,1.681,1.681,0,0,0-.281-.956,1.9,1.9,0,0,0-.747-.654,2.257,2.257,0,0,0-1.027-.234,2.315,2.315,0,0,0-1,.222,1.945,1.945,0,0,0-.758.63,1.619,1.619,0,0,0-.292.969Z" transform="translate(-636.527 -327.798)" fill="#fff"/>
        <path id="Path_88082" data-name="Path 88082" d="M728.877,345.261a2.574,2.574,0,0,1-.864-.14.818.818,0,0,1-.513-.4l-3.992-9.244a.672.672,0,0,1-.082-.2.863.863,0,0,1-.035-.223.841.841,0,0,1,.338-.641,2.642,2.642,0,0,1,.805-.468,2.5,2.5,0,0,1,.864-.175,1.213,1.213,0,0,1,.526.117.646.646,0,0,1,.338.4l2.614,6.771,2.591-6.724a.7.7,0,0,1,.328-.431,1.085,1.085,0,0,1,.537-.129,2.425,2.425,0,0,1,.782.175,2.981,2.981,0,0,1,.853.479.855.855,0,0,1,.373.654.9.9,0,0,1-.023.21.959.959,0,0,1-.07.187l-4.015,9.244a.817.817,0,0,1-.513.4A2.5,2.5,0,0,1,728.877,345.261Z" transform="translate(-692.435 -327.798)" fill="#fff"/>
        <path id="Path_88083" data-name="Path 88083" d="M802.189,345.214a6.855,6.855,0,0,1-2.931-.6,4.76,4.76,0,0,1-2-1.681,4.413,4.413,0,0,1-.724-2.509v-1.985a4.187,4.187,0,0,1,.688-2.323,5.124,5.124,0,0,1,1.845-1.7,5.218,5.218,0,0,1,2.58-.642,5.147,5.147,0,0,1,2.393.56,4.768,4.768,0,0,1,1.763,1.541,3.934,3.934,0,0,1,.677,2.288,2.421,2.421,0,0,1-.328,1.435,1.368,1.368,0,0,1-.828.538,5.137,5.137,0,0,1-1.039.1h-4.739v.349a1.993,1.993,0,0,0,.758,1.624,3.022,3.022,0,0,0,1.973.618,3.092,3.092,0,0,0,1.284-.234q.513-.233.886-.443a1.44,1.44,0,0,1,.7-.211.878.878,0,0,1,.608.234,1.629,1.629,0,0,1,.4.549,1.381,1.381,0,0,1,.14.548,1.237,1.237,0,0,1-.5.853,4.086,4.086,0,0,1-1.424.771A6.792,6.792,0,0,1,802.189,345.214Zm-2.638-6.748h3.408a.865.865,0,0,0,.548-.128.643.643,0,0,0,.153-.5,1.682,1.682,0,0,0-.281-.956,1.9,1.9,0,0,0-.747-.654,2.257,2.257,0,0,0-1.027-.234,2.315,2.315,0,0,0-1,.222,1.943,1.943,0,0,0-.758.63,1.619,1.619,0,0,0-.292.969Z" transform="translate(-753.84 -327.798)" fill="#fff"/>
        <path id="Path_88084" data-name="Path 88084" d="M894.727,313.754a2.478,2.478,0,0,1-.864-.164,2.2,2.2,0,0,1-.747-.443.866.866,0,0,1-.3-.654,1.822,1.822,0,0,1,.023-.234l4.505-14.685a1.258,1.258,0,0,1,.736-.77,3.09,3.09,0,0,1,2.463,0,1.259,1.259,0,0,1,.723.77l4.506,14.685a1.018,1.018,0,0,1,.047.234.863.863,0,0,1-.315.641,2.212,2.212,0,0,1-.759.455,2.475,2.475,0,0,1-.863.164,1.484,1.484,0,0,1-.643-.128.694.694,0,0,1-.362-.479l-.887-3.106h-5.369l-.864,3.106a.681.681,0,0,1-.373.479A1.567,1.567,0,0,1,894.727,313.754Zm2.544-6.093h4.062l-2.031-7.168Z" transform="translate(-834.659 -296.548)" fill="#fff"/>
        <path id="Path_88085" data-name="Path 88085" d="M985.214,314.487a2.238,2.238,0,0,1-1.039-.245.77.77,0,0,1-.479-.713V298.355a.739.739,0,0,1,.479-.711,2.572,2.572,0,0,1,2.089,0,.741.741,0,0,1,.468.711V313.53a.772.772,0,0,1-.468.713A2.22,2.22,0,0,1,985.214,314.487Z" transform="translate(-910.952 -297.282)" fill="#fff"/>
      </g>
    </g>
    <g id="Group_70148" data-name="Group 70148" transform="translate(97 -8)">
      <rect id="Rectangle_27583" data-name="Rectangle 27583" width="29" height="29" rx="7" transform="translate(81 5308)" opacity="0.996" fill="url(#linear-gradient)"/>
      <g id="Group_70142" data-name="Group 70142" transform="translate(89.189 5317.43)">
        <path id="Path_88086" data-name="Path 88086" d="M425.557,399.061l-.468-1.231H421.1l-.468,1.258a4.4,4.4,0,0,1-.468.993.745.745,0,0,1-.635.258.931.931,0,0,1-.662-.275.839.839,0,0,1-.288-.622,1.387,1.387,0,0,1,.067-.414q.067-.214.221-.6l2.508-6.368q.107-.274.257-.659a3.35,3.35,0,0,1,.321-.639,1.307,1.307,0,0,1,.448-.411,1.373,1.373,0,0,1,.685-.157,1.391,1.391,0,0,1,.692.157,1.33,1.33,0,0,1,.448.4,2.843,2.843,0,0,1,.288.532q.117.284.3.759l2.562,6.328a3.181,3.181,0,0,1,.3,1.05.87.87,0,0,1-.284.625.935.935,0,0,1-.685.284.889.889,0,0,1-.4-.084.822.822,0,0,1-.281-.227,2.1,2.1,0,0,1-.244-.441Q425.651,399.288,425.557,399.061Zm-3.933-2.723h2.93l-1.478-4.047Z" transform="translate(-418.58 -390.198)" fill="#fff"/>
        <path id="Path_88087" data-name="Path 88087" d="M460.61,399.128V391.4a1.3,1.3,0,0,1,.274-.9.915.915,0,0,1,.709-.3.947.947,0,0,1,.726.3,1.29,1.29,0,0,1,.278.906v7.726a1.3,1.3,0,0,1-.278.91.942.942,0,0,1-.726.3.913.913,0,0,1-.706-.3A1.3,1.3,0,0,1,460.61,399.128Z" transform="translate(-449.974 -390.198)" fill="#fff"/>
      </g>
    </g>
  </g>
</svg>
