<svg xmlns="http://www.w3.org/2000/svg" xmlns:xlink="http://www.w3.org/1999/xlink" width="87.047" height="31.147" viewBox="0 0 87.047 31.147">
  <defs>
    <linearGradient id="linear-gradient" x1="0.063" y1="0.093" x2="0.937" y2="-0.701" gradientUnits="objectBoundingBox">
      <stop offset="0" stop-color="#5ec8f1"/>
      <stop offset="1" stop-color="#2a8bff"/>
    </linearGradient>
  </defs>
  <g id="logo-deck" transform="translate(-518 -5766)">
    <g id="Group_69648" data-name="Group 69648" transform="translate(-4114.473 -706.96)">
      <g id="Group_70154" data-name="Group 70154">
        <g id="Group_69629" data-name="Group 69629" transform="translate(4672.617 6472.96)">
          <path id="Path_88269" data-name="Path 88269" d="M364.692,158.073a1.543,1.543,0,0,1-1.009-.3.841.841,0,0,1-.383-.686v-15.9a.841.841,0,0,1,.383-.686,1.543,1.543,0,0,1,1.009-.3h4.317a7.486,7.486,0,0,1,2.925.545,4.4,4.4,0,0,1,2.058,1.775,6.218,6.218,0,0,1,.767,3.268v6.657a6.218,6.218,0,0,1-.767,3.268,4.293,4.293,0,0,1-2.058,1.775,7.486,7.486,0,0,1-2.925.545h-4.317Zm1.775-2.784h2.542a2.516,2.516,0,0,0,1.9-.686,2.879,2.879,0,0,0,.686-2.118v-6.657a2.879,2.879,0,0,0-.686-2.118,2.529,2.529,0,0,0-1.876-.686h-2.562Z" transform="translate(-363.3 -139.716)" fill="#2d2d2d"/>
          <path id="Path_88270" data-name="Path 88270" d="M436.111,182.542a7.059,7.059,0,0,1-3.066-.625,5.083,5.083,0,0,1-2.078-1.755,4.655,4.655,0,0,1-.767-2.623v-2.078a4.269,4.269,0,0,1,.726-2.421,5.3,5.3,0,0,1,1.937-1.775,5.733,5.733,0,0,1,5.2-.081A4.743,4.743,0,0,1,439.9,172.8a4.158,4.158,0,0,1,.706,2.4,2.5,2.5,0,0,1-.343,1.493,1.464,1.464,0,0,1-.867.565,4.759,4.759,0,0,1-1.089.1h-4.963v.363a2.068,2.068,0,0,0,.787,1.695,3.178,3.178,0,0,0,2.058.646,3.307,3.307,0,0,0,1.352-.242c.363-.161.666-.323.928-.464a1.573,1.573,0,0,1,.726-.222.868.868,0,0,1,.625.242,1.888,1.888,0,0,1,.424.565,1.291,1.291,0,0,1,.141.565,1.314,1.314,0,0,1-.525.888,4.133,4.133,0,0,1-1.493.807A6.339,6.339,0,0,1,436.111,182.542Zm-2.764-7.04h3.571a.8.8,0,0,0,.565-.141.674.674,0,0,0,.161-.524,1.748,1.748,0,0,0-.3-1.009,1.988,1.988,0,0,0-.787-.686,2.377,2.377,0,0,0-1.069-.242,2.57,2.57,0,0,0-1.049.222,2.107,2.107,0,0,0-.787.666,1.7,1.7,0,0,0-.3,1.009Z" transform="translate(-416.704 -163.983)" fill="#2d2d2d"/>
          <path id="Path_88271" data-name="Path 88271" d="M494.326,182.463a6.111,6.111,0,0,1-3.026-.666,4.134,4.134,0,0,1-1.735-1.8A5.6,5.6,0,0,1,489,177.46V175.5a5.737,5.737,0,0,1,.545-2.542,4.026,4.026,0,0,1,1.735-1.8,6.054,6.054,0,0,1,2.986-.666,6.8,6.8,0,0,1,2.017.262,4.081,4.081,0,0,1,1.392.706,1.242,1.242,0,0,1,.5.928,1.684,1.684,0,0,1-.161.625,1.762,1.762,0,0,1-.444.625.883.883,0,0,1-.646.262,1.129,1.129,0,0,1-.545-.161,4.126,4.126,0,0,0-.726-.343,3.206,3.206,0,0,0-1.17-.161,2.4,2.4,0,0,0-1.816.605,2.288,2.288,0,0,0-.565,1.654v1.957a2.288,2.288,0,0,0,.565,1.654,2.424,2.424,0,0,0,1.836.605,2.651,2.651,0,0,0,1.17-.2,4.23,4.23,0,0,0,.686-.363,1.009,1.009,0,0,1,.565-.161,1.144,1.144,0,0,1,.746.242,1.525,1.525,0,0,1,.464.605,1.683,1.683,0,0,1,.161.646,1.309,1.309,0,0,1-.524.948,4.147,4.147,0,0,1-1.432.767A6.8,6.8,0,0,1,494.326,182.463Z" transform="translate(-463.642 -163.903)" fill="#2d2d2d"/>
          <path id="Path_88272" data-name="Path 88272" d="M545.133,156.158a1.707,1.707,0,0,1-1.089-.323.848.848,0,0,1-.444-.686V138.768a.782.782,0,0,1,.444-.706,2.076,2.076,0,0,1,1.089-.262,2.206,2.206,0,0,1,1.15.262.826.826,0,0,1,.464.706V149l4.62-4.317a.821.821,0,0,1,.605-.242,1.447,1.447,0,0,1,.726.222,2.232,2.232,0,0,1,.585.565,1.17,1.17,0,0,1,.222.706.808.808,0,0,1-.061.3.668.668,0,0,1-.2.282l-2.885,2.622,3.611,5.124a.872.872,0,0,1,.161.5,1.137,1.137,0,0,1-.3.726,2.555,2.555,0,0,1-.706.605,1.577,1.577,0,0,1-.807.222.927.927,0,0,1-.787-.424l-3.268-4.862-1.533,1.392v2.683a.907.907,0,0,1-.464.686A1.764,1.764,0,0,1,545.133,156.158Z" transform="translate(-507.228 -137.8)" fill="#2d2d2d"/>
        </g>
        <g id="Group_69630" data-name="Group 69630" transform="translate(4671.952 6495.635)">
          <path id="Path_88273" data-name="Path 88273" d="M363.893,251.773a1.25,1.25,0,0,1-.081.464,1.476,1.476,0,0,1-.605.807,2.232,2.232,0,0,1-.545.242v.04a2.265,2.265,0,0,1,.525.161,1.726,1.726,0,0,1,.444.3,1.584,1.584,0,0,1,.323.464,1.636,1.636,0,0,1,.121.666,1.674,1.674,0,0,1-.2.867,1.961,1.961,0,0,1-.545.605,2.407,2.407,0,0,1-.767.343,3.251,3.251,0,0,1-.888.121h-.363a3.419,3.419,0,0,1-.444-.02,3.6,3.6,0,0,1-.464-.04c-.161-.02-.282-.04-.4-.061v-6.395c.222-.04.5-.061.807-.1.3-.02.625-.04.988-.04a4.85,4.85,0,0,1,.746.061,2.487,2.487,0,0,1,.686.222,1.646,1.646,0,0,1,.5.484A1.914,1.914,0,0,1,363.893,251.773Zm-2.663,1.372h.383c.141,0,.262-.02.363-.02a1.915,1.915,0,0,0,.424-.182c.121-.081.242-.161.343-.242a1.054,1.054,0,0,0,.242-.343.9.9,0,0,0,.081-.4.983.983,0,0,0-.121-.5.934.934,0,0,0-.3-.323,1.464,1.464,0,0,0-.444-.182,2.154,2.154,0,0,0-.5-.061,5.1,5.1,0,0,0-.565.02,1.7,1.7,0,0,0-.383.04v2.2h.484Zm.5,3.046a2.881,2.881,0,0,0,.585-.061,1.329,1.329,0,0,0,.484-.222,1.048,1.048,0,0,0,.343-.383,1.117,1.117,0,0,0,.121-.524,1.029,1.029,0,0,0-.161-.605,1.165,1.165,0,0,0-.4-.363,2.16,2.16,0,0,0-.545-.182,3.053,3.053,0,0,0-.605-.04h-.807v2.32a.448.448,0,0,0,.182.02c.081,0,.161.02.262.02s.182.02.282.02Z" transform="translate(-360 -250.2)"/>
        </g>
        <g id="Group_69631" data-name="Group 69631" transform="translate(4676.672 6497.532)">
          <path id="Path_88274" data-name="Path 88274" d="M385.377,262.646l.262.888h.04l.2-.908.908-3.006h.746l-1.372,4.176c-.1.3-.2.605-.3.888a5.449,5.449,0,0,1-.343.767,1.611,1.611,0,0,1-.424.525.8.8,0,0,1-.545.2,1.381,1.381,0,0,1-.545-.1l.121-.646a.473.473,0,0,0,.222.04.688.688,0,0,0,.5-.282,2.21,2.21,0,0,0,.4-.948L383.4,259.6h.847Z" transform="translate(-383.4 -259.6)"/>
        </g>
        <g id="Group_69632" data-name="Group 69632" transform="translate(4683.43 6495.635)">
          <path id="Path_88275" data-name="Path 88275" d="M417.142,259.824a3.076,3.076,0,0,1,.827-.323,5.127,5.127,0,0,1,.988-.1,1.963,1.963,0,0,1,.767.121,1.1,1.1,0,0,1,.444.343,1.2,1.2,0,0,1,.2.464,2.154,2.154,0,0,1,.061.5c0,.363,0,.726-.02,1.089-.02.343-.02.686-.02,1.009,0,.222,0,.444.02.646a4.692,4.692,0,0,0,.1.565h-.565l-.2-.646h-.04a2.287,2.287,0,0,1-.2.262,1.175,1.175,0,0,1-.3.222,2.4,2.4,0,0,1-.4.161,1.973,1.973,0,0,1-.525.061,1.54,1.54,0,0,1-.545-.1,1.234,1.234,0,0,1-.444-.262,1.125,1.125,0,0,1-.282-.4,1.2,1.2,0,0,1-.1-.545,1.436,1.436,0,0,1,.161-.686,1.4,1.4,0,0,1,.464-.444,3.063,3.063,0,0,1,.726-.242,6.517,6.517,0,0,1,.928-.061h.262a1.24,1.24,0,0,1,.262.02,4.388,4.388,0,0,0,.02-.5.924.924,0,0,0-.2-.706,1.14,1.14,0,0,0-.746-.2,2.078,2.078,0,0,0-.343.02l-.363.061a2.436,2.436,0,0,0-.363.1,1.055,1.055,0,0,0-.3.141Zm1.311,3.732a1.617,1.617,0,0,0,.464-.061.793.793,0,0,0,.343-.182.92.92,0,0,0,.242-.242.756.756,0,0,0,.141-.242v-.767c-.081,0-.182-.02-.262-.02h-.262a4.959,4.959,0,0,0-.565.04,1.7,1.7,0,0,0-.484.121,1.055,1.055,0,0,0-.343.242.582.582,0,0,0-.121.383.624.624,0,0,0,.242.525A1.037,1.037,0,0,0,418.453,263.556Z" transform="translate(-416.9 -257.544)"/>
          <path id="Path_88276" data-name="Path 88276" d="M444.265,264.041V261.4a2.226,2.226,0,0,0-.2-1.089.818.818,0,0,0-.767-.363,1.179,1.179,0,0,0-.807.262,1.345,1.345,0,0,0-.444.666v3.167H441.3V259.4h.524l.141.565h.04a1.468,1.468,0,0,1,.605-.484,1.99,1.99,0,0,1,.888-.182,2.147,2.147,0,0,1,.666.081,1.1,1.1,0,0,1,.484.3,1.411,1.411,0,0,1,.282.605,4.005,4.005,0,0,1,.1.948v2.8Z" transform="translate(-436.378 -257.464)"/>
          <path id="Path_88277" data-name="Path 88277" d="M466.4,250.725a.486.486,0,0,1,.141-.363.505.505,0,0,1,.363-.161.551.551,0,0,1,.383.161.505.505,0,0,1,.161.363.431.431,0,0,1-.161.343.533.533,0,0,1-.383.141.486.486,0,0,1-.363-.141A.452.452,0,0,1,466.4,250.725Zm.161,1.412h.746v4.64h-.746Z" transform="translate(-456.414 -250.2)"/>
          <path id="Path_88278" data-name="Path 88278" d="M481.423,263.961v-2.622a5.8,5.8,0,0,0-.04-.646,1.412,1.412,0,0,0-.121-.464.6.6,0,0,0-.262-.282,1.061,1.061,0,0,0-1.15.161,1.529,1.529,0,0,0-.4.646v3.187H478.7V259.3h.524l.141.565h.04a1.926,1.926,0,0,1,.585-.484,1.788,1.788,0,0,1,.867-.182,1.291,1.291,0,0,1,.726.182,1.192,1.192,0,0,1,.444.605,1.573,1.573,0,0,1,.585-.565,1.647,1.647,0,0,1,.847-.2,2.148,2.148,0,0,1,.666.081.973.973,0,0,1,.444.3,1.405,1.405,0,0,1,.262.605,4.453,4.453,0,0,1,.081.968v2.784h-.746v-2.784a4.7,4.7,0,0,0-.04-.585,1.06,1.06,0,0,0-.121-.4.756.756,0,0,0-.262-.242,1.178,1.178,0,0,0-1.17.182,1.372,1.372,0,0,0-.363.746v3.107h-.787Z" transform="translate(-466.233 -257.384)"/>
          <path id="Path_88279" data-name="Path 88279" d="M514.922,259.824a3.076,3.076,0,0,1,.827-.323,5.127,5.127,0,0,1,.989-.1,1.963,1.963,0,0,1,.767.121,1.1,1.1,0,0,1,.444.343,1.205,1.205,0,0,1,.2.464,2.154,2.154,0,0,1,.06.5c0,.363,0,.726-.02,1.089s-.02.686-.02,1.009c0,.222,0,.444.02.646a4.686,4.686,0,0,0,.1.565h-.545l-.2-.646h-.04a2.287,2.287,0,0,1-.2.262,1.174,1.174,0,0,1-.3.222,2.4,2.4,0,0,1-.4.161,2.08,2.08,0,0,1-.525.061,1.54,1.54,0,0,1-.545-.1,1.233,1.233,0,0,1-.444-.262,1.125,1.125,0,0,1-.282-.4,1.2,1.2,0,0,1-.1-.545,1.435,1.435,0,0,1,.161-.686,1.4,1.4,0,0,1,.464-.444,3.061,3.061,0,0,1,.726-.242,6.517,6.517,0,0,1,.928-.061h.262a1.241,1.241,0,0,1,.262.02,4.394,4.394,0,0,0,.02-.5.924.924,0,0,0-.2-.706,1.034,1.034,0,0,0-.746-.2,2.078,2.078,0,0,0-.343.02l-.363.061a2.439,2.439,0,0,0-.363.1,1.054,1.054,0,0,0-.3.141Zm1.311,3.732a1.618,1.618,0,0,0,.464-.061.793.793,0,0,0,.343-.182.921.921,0,0,0,.242-.242.757.757,0,0,0,.141-.242v-.767c-.081,0-.182-.02-.262-.02H516.9a4.961,4.961,0,0,0-.565.04,1.7,1.7,0,0,0-.484.121,1.055,1.055,0,0,0-.343.242.582.582,0,0,0-.121.383.624.624,0,0,0,.242.525A.991.991,0,0,0,516.233,263.556Z" transform="translate(-494.971 -257.544)"/>
        </g>
        <g id="Group_69633" data-name="Group 69633" transform="translate(4708.042 6495.716)">
          <path id="Path_88280" data-name="Path 88280" d="M540.07,255.018h-.424V257.1H538.9v-6.5h.746v3.954l.383-.121,1.432-1.977h.867l-1.412,1.856-.383.3.464.363,1.553,2.1h-.928Z" transform="translate(-538.9 -250.6)"/>
        </g>
        <g id="Group_69634" data-name="Group 69634" transform="translate(4712.117 6497.431)">
          <path id="Path_88281" data-name="Path 88281" d="M562.751,263.518a2.1,2.1,0,0,1-.706.343,3.251,3.251,0,0,1-.888.121,2.24,2.24,0,0,1-.928-.182,1.942,1.942,0,0,1-.645-.484,2.248,2.248,0,0,1-.363-.767,3.841,3.841,0,0,1-.121-1.009,2.821,2.821,0,0,1,.524-1.816,1.826,1.826,0,0,1,1.513-.625,3.283,3.283,0,0,1,.625.061,1.451,1.451,0,0,1,.565.262,1.426,1.426,0,0,1,.4.545,2.431,2.431,0,0,1,.161.948,4.524,4.524,0,0,1-.06.686h-2.945a2.763,2.763,0,0,0,.081.726,1.424,1.424,0,0,0,.262.524,1.165,1.165,0,0,0,.464.343,1.833,1.833,0,0,0,1.311,0,1.406,1.406,0,0,0,.464-.262Zm-1.594-3.732a1.281,1.281,0,0,0-.867.282,1.552,1.552,0,0,0-.4.988h2.3a1.417,1.417,0,0,0-.262-.988A1.052,1.052,0,0,0,561.158,259.786Z" transform="translate(-559.1 -259.1)"/>
          <path id="Path_88282" data-name="Path 88282" d="M585.979,260.127a1.717,1.717,0,0,0-.525-.1.874.874,0,0,0-.625.222,1.013,1.013,0,0,0-.282.545v3.248H583.8V259.4h.524l.141.565h.04a1.665,1.665,0,0,1,.424-.484,1,1,0,0,1,.625-.182,2.365,2.365,0,0,1,.605.1Z" transform="translate(-578.817 -259.26)"/>
        </g>
      </g>
    </g>
    <g id="Group_70153" data-name="Group 70153" transform="translate(437 359)">
      <rect id="Rectangle_27586" data-name="Rectangle 27586" width="29" height="29" rx="7" transform="translate(81 5408)" fill="url(#linear-gradient)"/>
      <g id="Group_54814" transform="translate(87.627 5417)">
        <g id="Line_968" transform="translate(0 0)">
          <path id="Path_88283" data-name="Path 88283" d="M279.737,245.513h-14.93a.507.507,0,1,1,0-1.013h14.93a.507.507,0,0,1,0,1.013Z" transform="translate(-264.3 -244.5)" fill="#fff"/>
        </g>
        <g id="Ellipse_4149" transform="translate(7.229 11.079)">
          <g id="Ellipse_4150">
            <circle id="Ellipse_5663" data-name="Ellipse 5663" cx="0.439" cy="0.439" r="0.439" transform="translate(0.338 0.338)" fill="#fff"/>
            <path id="Path_88284" data-name="Path 88284" d="M286.477,278.854a.777.777,0,1,1,.777-.777h0A.764.764,0,0,1,286.477,278.854Zm0-.878a.1.1,0,1,0,.1.1.089.089,0,0,0-.1-.1Z" transform="translate(-285.7 -277.3)" fill="#fff"/>
          </g>
          <g id="Ellipse_4151" transform="translate(0.068 0.068)">
            <path id="Path_88285" data-name="Path 88285" d="M286.609,278.919a.713.713,0,0,1-.709-.709.709.709,0,0,1,1.419,0h0A.737.737,0,0,1,286.609,278.919Zm0-.743a.033.033,0,0,0-.034.034c0,.034.068.034.068,0S286.643,278.176,286.609,278.176Z" transform="translate(-285.9 -277.5)" fill="#fff"/>
          </g>
        </g>
        <g id="Rectangle_10212" transform="translate(1.452 0.473)">
          <g id="Rectangle_10214">
            <path id="Path_88286" data-name="Path 88286" d="M268.6,245.9h13.072v8.445a1.37,1.37,0,0,1-1.385,1.385H270.019a1.37,1.37,0,0,1-1.385-1.385V245.9Z" transform="translate(-268.6 -245.9)" fill="#fff"/>
          </g>
        </g>
        <g id="Path_28515" transform="translate(6.249 3.344)">
          <path id="Path_88287" data-name="Path 88287" d="M282.868,254.94a.534.534,0,0,1,.54-.54.545.545,0,0,1,.3.1,25.879,25.879,0,0,1,2.229,1.52.549.549,0,0,1,.169.743c-.034.068-.1.1-.169.169a23.663,23.663,0,0,1-2.263,1.486.552.552,0,0,1-.777-.169.545.545,0,0,1-.1-.3C282.8,256.933,282.8,255.954,282.868,254.94Z" transform="translate(-282.8 -254.4)" fill="#00aae9"/>
        </g>
        <g id="Rectangle_10213" transform="translate(7.668 10.269)">
          <g id="Rectangle_10215">
            <rect id="Rectangle_27557" data-name="Rectangle 27557" width="0.676" height="1.385" fill="#fff"/>
          </g>
        </g>
      </g>
    </g>
  </g>
</svg>
