<svg xmlns="http://www.w3.org/2000/svg" width="81.638" height="19.134" viewBox="0 0 81.638 19.134">
  <g id="Truist" transform="translate(-620.935 -980.013)" style="mix-blend-mode: normal;isolation: isolate">
    <path id="Path_88037" data-name="Path 88037" d="M63.7,3.016A1.589,1.589,0,0,0,62.08,1.435H46.189a1.589,1.589,0,0,0-1.621,1.581V18.988a1.589,1.589,0,0,0,1.621,1.581H62.08A1.589,1.589,0,0,0,63.7,18.988ZM55.381,6.579h1.864v3.475H62.08V3.016H46.189v7.039h4.836V6.579h1.864v8.844H51.025V11.949H46.189v7.039H62.08V11.949H57.244v3.475H55.381Z" transform="translate(638.872 978.579)" fill="#aa70e0" fill-rule="evenodd"/>
    <path id="Path_88042" data-name="Path 88042" d="M95.055,55.83a5.769,5.769,0,0,0-1.078.082,3.1,3.1,0,0,0-2.7,2.981,2.769,2.769,0,0,0,.252,1.474c.411.847,1.077,1.3,2.842,1.918,1.929.679,2.284.956,2.284,1.776a1.059,1.059,0,0,1-.365.912,2.008,2.008,0,0,1-1.564.48,4.6,4.6,0,0,1-2.241-.57c-.268-.131-.573-.29-.677-.355l-.189-.117v2.034l.3.134a7.388,7.388,0,0,0,2.2.588,7.9,7.9,0,0,0,1.622-.048,5.559,5.559,0,0,0,1.137-.36,3.113,3.113,0,0,0,1.569-1.788,3.9,3.9,0,0,0,.142-1.462,2.383,2.383,0,0,0-.707-1.545,5.781,5.781,0,0,0-2.6-1.347c-1.554-.533-2.007-.877-2.091-1.59a1.263,1.263,0,0,1,.7-1.248,3.973,3.973,0,0,1,3.435.4,2.567,2.567,0,0,0,.3.154,9.249,9.249,0,0,0,.026-.978v-.978l-.2-.084a7.585,7.585,0,0,0-1.3-.385,6.352,6.352,0,0,0-1.112-.083Z" transform="translate(569.422 927.964)" fill="#aa70e0"/>
    <path id="Path_88043" data-name="Path 88043" d="M1.6,56.28v1.775H5.061v9.14H6.969v-9.14h3.461V56.28Z" transform="translate(619.335 927.714)" fill="#aa70e0"/>
    <path id="Path_88044" data-name="Path 88044" d="M79.75,56.28V67.195h1.908V56.28Z" transform="translate(575.836 927.714)" fill="#aa70e0"/>
    <path id="Path_88045" data-name="Path 88045" d="M110.77,56.28l.024,1.753,3.439.023v9.139h1.908v-9.14H119.6V56.279Z" transform="translate(558.57 927.714)" fill="#aa70e0"/>
    <path id="Path_88046" data-name="Path 88046" d="M60.311,64.673c.275-.8.282-.953.283-4.879V56.279H58.686v3.515c0,3.99,0,3.987-.315,4.64a2.48,2.48,0,0,1-4.312,0c-.318-.653-.315-.65-.315-4.64V56.279H51.836v3.515c0,3.926.008,4.076.283,4.879a4.094,4.094,0,0,0,3.509,2.745,4.952,4.952,0,0,0,1.175,0,4.076,4.076,0,0,0,3.509-2.745Z" transform="translate(591.373 927.715)" fill="#aa70e0"/>
    <path id="Path_88047" data-name="Path 88047" d="M30.594,58.009a3.07,3.07,0,0,1,1.542.207,1.8,1.8,0,0,1,.474,2.862,1.712,1.712,0,0,1-.933.5,15.525,15.525,0,0,1-2.8.008V58.024l1.262-.012.456,0Zm-3.581-1.745V67.186h1.864v-3.86H29.4c1.172,0,1.455.208,2.16,1.592a5.508,5.508,0,0,0,1.032,1.621,2.841,2.841,0,0,0,1.254.669,5.7,5.7,0,0,0,1.509.007V65.491l-.255.027a1.42,1.42,0,0,1-1.275-.527,8.209,8.209,0,0,1-.488-.8,4.671,4.671,0,0,0-.7-1.07l-.129-.138.31-.1A3.158,3.158,0,0,0,34.9,60.863a4.221,4.221,0,0,0,.063-1.945,3.275,3.275,0,0,0-2.068-2.339c-.673-.269-.751-.275-3.427-.3Z" transform="translate(605.19 927.723)" fill="#aa70e0"/>
  </g>
</svg>
