<svg xmlns="http://www.w3.org/2000/svg" width="88.911" height="27.904" viewBox="0 0 88.911 27.904">
  <g id="United_HealthCare" data-name="United HealthCare" style="mix-blend-mode: normal;isolation: isolate">
    <path id="Path_28535" data-name="Path 28535" d="M4.468,26.618h0a8.6,8.6,0,0,0,2.814.466c4.236,0,7.185-3.071,7.185-8.912V.768L16.077,0V18.474c0,5.957-3.071,9.43-7.421,9.43a7.646,7.646,0,0,1-4.188-1.286ZM2.63,24.847h0a9.226,9.226,0,0,0,2.814.534c3.561,0,5.933-2.233,5.933-7.282V2.1l1.582-.748V18.242c0,5.282-2.675,7.981-6.4,7.981A6.7,6.7,0,0,1,2.63,24.847ZM1.512,23.268h0a8.514,8.514,0,0,0,2.35.418c2.769,0,4.468-1.512,4.468-5.49V3.443l1.558-.748V17.962c0,4.468-2.046,6.492-4.978,6.492a5.538,5.538,0,0,1-3.4-1.185Zm5.353-4.654V4.049L0,7.143V18.968a3.455,3.455,0,0,0,3.513,3.769C5.607,22.737,6.864,21.2,6.864,18.615Z" fill="#aa70e0"/>
    <path id="Path_28536" data-name="Path 28536" d="M159.8,18.564v5.43a3.288,3.288,0,0,0,3.455,3.571,3.371,3.371,0,0,0,3.411-3.615V18.712a1.048,1.048,0,0,1,1.025-1.084l.2-.013V17.1h-3.41v.513l.22.013a1.048,1.048,0,0,1,1.024,1.084v5.079c0,1.654-.864,2.664-2.211,2.664s-2.166-1.069-2.166-2.678V18.564c0-.57.307-.9.952-.937l.205-.013V17.1h-3.88v.513l.22.013C159.479,17.672,159.8,17.983,159.8,18.564Z" transform="translate(-134.886 -14.54)" fill="#aa70e0"/>
    <path id="Path_28537" data-name="Path 28537" d="M166.617,101.362l.219.015c.542.028.952.248.952.864v3.191h-3.835v-3.191c0-.615.41-.82.952-.864l.205-.015v-.512h-3.88v.512l.22.015c.542.028.95.248.95.864V109.7c0,.615-.409.835-.95.864l-.22.015v.512h3.88v-.512l-.205-.015c-.542-.043-.952-.248-.952-.864v-3.482h3.829V109.7c0,.615-.41.835-.952.864l-.218.015v.512h3.878v-.512l-.205-.015c-.54-.043-.95-.248-.95-.864v-7.463c0-.615.41-.82.95-.864l.205-.015v-.512h-3.872Z" transform="translate(-137.097 -85.755)" fill="#aa70e0"/>
    <path id="Path_28538" data-name="Path 28538" d="M220.44,35.892v.483l.292.013c.449.03.732.25.732.864v4.51a.75.75,0,0,1-.805.862l-.219.015v.5h3.468v-.5l-.205-.015a.749.749,0,0,1-.8-.862V39.367c.028-1.757.79-2.811,1.682-2.811.689,0,1.142.469,1.142,1.376v3.83a.75.75,0,0,1-.805.862l-.22.015v.5h3.47v-.5l-.205-.015a.75.75,0,0,1-.805-.862v-4a1.967,1.967,0,0,0-2.1-2.1A2.234,2.234,0,0,0,222.9,37.3V35.7Z" transform="translate(-187.444 -30.331)" fill="#aa70e0"/>
    <path id="Path_28539" data-name="Path 28539" d="M335.256,42.961a2.718,2.718,0,0,0,2.651-2.152l-.63-.174a1.858,1.858,0,0,1-1.829,1.4c-1.185,0-1.991-1.127-1.991-2.913h4.552V38.7c0-1.889-1.112-3.411-2.9-3.411-1.917,0-3.191,1.831-3.191,3.835S333.149,42.961,335.256,42.961Zm-.16-6.836c.805,0,1.317.748,1.376,2.283h-2.986C333.632,36.989,334.218,36.125,335.1,36.125Z" transform="translate(-282.237 -30.008)" fill="#aa70e0"/>
    <path id="Path_28540" data-name="Path 28540" d="M298.447,29.618a1.641,1.641,0,0,0,1.786,1.787,2.151,2.151,0,0,0,2.006-1.816l-.527-.15c-.205.615-.542,1-1.01,1-.615,0-.82-.449-.82-.98v-4.74h2.006v-.76h-2.006V21.7h-.731c-.278,1.7-1.142,2.313-2.051,2.5v.512h1.347Z" transform="translate(-252.629 -18.452)" fill="#aa70e0"/>
    <path id="Path_28541" data-name="Path 28541" d="M280.245,17.022a.967.967,0,0,0,0-1.932.966.966,0,0,0,0,1.932Z" transform="translate(-237.5 -12.831)" fill="#aa70e0"/>
    <path id="Path_28542" data-name="Path 28542" d="M274.829,37.431v4.51a.75.75,0,0,1-.805.862l-.22.015v.5h3.47v-.5l-.205-.015a.75.75,0,0,1-.805-.862V35.88l-2.533.19v.483l.367.013C274.55,36.582,274.829,36.817,274.829,37.431Z" transform="translate(-232.757 -30.509)" fill="#aa70e0"/>
    <path id="Path_28543" data-name="Path 28543" d="M380.491,26.414a2.065,2.065,0,0,0,2.034-1.347v1.2h2.444v-.5l-.205-.015a.75.75,0,0,1-.805-.862V15.83l-2.488.22v.483l.322.013c.449.015.732.25.732.864v2.636a2.068,2.068,0,0,0-2.034-1.3c-1.919,0-3,1.831-3,3.835S378.572,26.414,380.491,26.414Zm.249-6.836c1.082,0,1.786,1.171,1.786,2.994s-.7,2.994-1.786,2.994c-1.025,0-1.7-1.156-1.7-2.994s.674-2.994,1.7-2.994Z" transform="translate(-320.986 -13.461)" fill="#aa70e0"/>
    <path id="Path_28544" data-name="Path 28544" d="M518.357,119.23a2.02,2.02,0,0,0-1.9,1.552v-1.5L514,119.48v.482l.292.015c.449.03.732.248.732.864v4.508a.748.748,0,0,1-.805.864l-.219.018v.5h3.468v-.5l-.2-.015a.75.75,0,0,1-.8-.864V122.89c.028-1.829.819-2.971,1.786-2.971a.587.587,0,0,1,.482.19.76.76,0,0,0-.409.689.78.78,0,0,0,.775.775.8.8,0,0,0,.775-.849A1.455,1.455,0,0,0,518.357,119.23Z" transform="translate(-437.063 -101.383)" fill="#aa70e0"/>
    <path id="Path_28545" data-name="Path 28545" d="M556.471,119c-1.917,0-3.191,1.829-3.191,3.835s1.229,3.835,3.338,3.835a2.718,2.718,0,0,0,2.649-2.151l-.63-.177a1.86,1.86,0,0,1-1.829,1.406c-1.186,0-1.991-1.127-1.991-2.913h4.558v-.425C559.375,120.528,558.257,119,556.471,119Zm-1.626,3.118c.15-1.42.732-2.284,1.611-2.284.805,0,1.317.748,1.376,2.284Z" transform="translate(-470.464 -101.188)" fill="#aa70e0"/>
    <path id="Path_28546" data-name="Path 28546" d="M474.222,125.349v-3.821a2.35,2.35,0,0,0-2.634-2.488c-1.419,0-2.678.937-2.678,2.006a.776.776,0,0,0,1.551.028.789.789,0,0,0-.4-.687,1.558,1.558,0,0,1,1.3-.587c.9,0,1.435.674,1.435,1.8v.337l-2.167.9c-1.449.6-1.946,1.127-1.946,2.078a1.8,1.8,0,0,0,2.034,1.8,2.214,2.214,0,0,0,2.064-1.434v.22c0,.748.527,1.2,1.405,1.2a3.035,3.035,0,0,0,.922-.132v-.488C474.5,126.139,474.222,125.9,474.222,125.349Zm-1.434-1.654c-.073,1.287-.717,2.151-1.611,2.151a1.011,1.011,0,0,1-1.048-1.112,1.4,1.4,0,0,1,.937-1.332l1.736-.775Z" transform="translate(-398.535 -101.222)" fill="#aa70e0"/>
    <path id="Path_28547" data-name="Path 28547" d="M342.16,113.185c-.205.614-.54,1-1.009,1-.615,0-.82-.449-.82-.98v-4.743h2.006v-.762h-2.006V105.44H339.6c-.278,1.7-1.142,2.314-2.049,2.5v.512H338.9v4.9a1.639,1.639,0,0,0,1.786,1.786,2.151,2.151,0,0,0,2-1.816Z" transform="translate(-287.025 -89.657)" fill="#aa70e0"/>
    <path id="Path_28548" data-name="Path 28548" d="M274.922,125.349v-3.821a2.35,2.35,0,0,0-2.634-2.488c-1.419,0-2.678.937-2.678,2.006a.775.775,0,1,0,1.551.028.793.793,0,0,0-.4-.687,1.557,1.557,0,0,1,1.3-.587c.9,0,1.435.674,1.435,1.8v.337l-2.167.9c-1.449.6-1.946,1.127-1.946,2.078a1.8,1.8,0,0,0,2.034,1.8,2.214,2.214,0,0,0,2.064-1.434v.22c0,.748.527,1.2,1.406,1.2a3.035,3.035,0,0,0,.922-.132v-.488C275.2,126.139,274.922,125.9,274.922,125.349Zm-1.434-1.654c-.073,1.287-.717,2.151-1.611,2.151a1.011,1.011,0,0,1-1.048-1.112,1.4,1.4,0,0,1,.937-1.332l1.736-.775Z" transform="translate(-229.067 -101.222)" fill="#aa70e0"/>
    <path id="Path_28549" data-name="Path 28549" d="M429.171,125.788c-1.186,0-1.991-1.127-1.991-2.913,0-1.816.79-2.971,1.976-2.971a1.43,1.43,0,0,1,1.185.5.811.811,0,0,0-.365.674.78.78,0,0,0,.775.775.79.79,0,0,0,.775-.849,2.24,2.24,0,0,0-2.444-1.961,3.543,3.543,0,0,0-3.443,3.835c0,2.006,1.229,3.835,3.338,3.835a2.633,2.633,0,0,0,2.591-2.064l-.63-.19A1.777,1.777,0,0,1,429.171,125.788Z" transform="translate(-361.929 -101.222)" fill="#aa70e0"/>
    <path id="Path_28550" data-name="Path 28550" d="M316.959,108.64V99.58l-2.489.213v.483l.322.015c.449.015.732.248.732.864v7.484a.751.751,0,0,1-.805.864l-.219.015v.5h3.468v-.492l-.205-.015A.754.754,0,0,1,316.959,108.64Z" transform="translate(-267.399 -84.675)" fill="#aa70e0"/>
    <path id="Path_28551" data-name="Path 28551" d="M378.428,108.64v-4a1.968,1.968,0,0,0-2.1-2.1,2.234,2.234,0,0,0-2.167,1.624V99.58l-2.485.213v.483l.322.015c.449.015.732.248.732.864v7.484a.751.751,0,0,1-.805.864l-.22.015v.5h3.47v-.492l-.205-.015a.751.751,0,0,1-.805-.864v-2.395c.03-1.756.79-2.81,1.684-2.81.689,0,1.142.469,1.142,1.376v3.835a.751.751,0,0,1-.805.864l-.22.015v.5h3.47v-.5l-.205-.015A.754.754,0,0,1,378.428,108.64Z" transform="translate(-316.046 -84.675)" fill="#aa70e0"/>
    <path id="Path_28552" data-name="Path 28552" d="M228.19,119c-1.917,0-3.19,1.835-3.19,3.841s1.23,3.835,3.338,3.835a2.717,2.717,0,0,0,2.649-2.151l-.63-.177a1.853,1.853,0,0,1-1.829,1.406c-1.185,0-1.991-1.127-1.991-2.913h4.552v-.425C231.088,120.528,229.975,119,228.19,119Zm-1.624,3.118c.15-1.42.73-2.284,1.609-2.284.805,0,1.317.748,1.376,2.284Z" transform="translate(-191.321 -101.188)" fill="#aa70e0"/>
  </g>
</svg>
