<svg xmlns="http://www.w3.org/2000/svg" xmlns:xlink="http://www.w3.org/1999/xlink" width="59.246" height="19.134" viewBox="0 0 59.246 19.134">
  <defs>
    <clipPath id="clip-path">
      <rect id="Rectangle_6275" data-name="Rectangle 6275" width="59.246" height="19.134" fill="#aa70e0"/>
    </clipPath>
  </defs>
  <g id="Visa" style="mix-blend-mode: normal;isolation: isolate">
    <g id="Group_46178" data-name="Group 46178" clip-path="url(#clip-path)">
      <path id="Path_28488" data-name="Path 28488" d="M22.494.338,14.738,18.845H9.677L5.86,4.075A2.028,2.028,0,0,0,4.723,2.449,20.043,20.043,0,0,0,0,.876L.114.338H8.26a2.231,2.231,0,0,1,2.207,1.887l2.016,10.709L17.465.338ZM42.323,12.8c.02-4.884-6.754-5.153-6.707-7.335.015-.664.647-1.37,2.031-1.55a9.03,9.03,0,0,1,4.72.828L43.207.82A12.865,12.865,0,0,0,38.729,0C34,0,30.667,2.516,30.638,6.117c-.031,2.664,2.377,4.151,4.191,5.036,1.866.907,2.492,1.489,2.485,2.3-.013,1.242-1.488,1.79-2.867,1.811A10.03,10.03,0,0,1,29.532,14.1l-.868,4.054a14.513,14.513,0,0,0,5.324.983c5.03,0,8.319-2.484,8.335-6.332m12.5,6.042h4.428L55.381.338H51.294A2.178,2.178,0,0,0,49.257,1.7L42.073,18.845H47.1l1-2.764H54.24Zm-5.342-6.557L52,5.339l1.45,6.949ZM29.335.338,25.376,18.845H20.589L24.549.338Z" fill="#aa70e0"/>
    </g>
  </g>
</svg>
