<svg xmlns="http://www.w3.org/2000/svg" width="54" height="53.879" viewBox="0 0 54 53.879">
  <g id="Group_56475" data-name="Group 56475" transform="translate(-584 -100)">
    <g id="Group_56447" data-name="Group 56447" transform="translate(-38 -5)">
      <rect id="Rectangle_10448" data-name="Rectangle 10448" width="52.071" height="52.071" rx="10" transform="translate(622.964 106.286)" fill="rgba(255,195,0,0.3)"/>
      <g id="Group_56430" data-name="Group 56430" transform="translate(622 105)">
        <path id="Path_60528" data-name="Path 60528" d="M164.676,227h-27.34c-7.88-.111-13.139,5.128-13.336,13.376V267.5a12.926,12.926,0,0,0,13.324,13.376h27.529A12.5,12.5,0,0,0,178,267.5V240.378A13.366,13.366,0,0,0,164.676,227m11.67,40.5a11.73,11.73,0,0,1-3.186,8.6,11.462,11.462,0,0,1-8.3,3.117H137.325A11.326,11.326,0,0,1,125.654,267.5V240.4c.136-5.7,3.21-11.744,11.422-11.744l.248,0h27.352a11.71,11.71,0,0,1,11.67,11.722Z" transform="translate(-124 -227)" fill="#ffc300"/>
      </g>
    </g>
    <path id="Path_60529" data-name="Path 60529" d="M162.941,250.152,152.289,260.8l-.015.015-.1.1.013.013a.863.863,0,0,0-.09.175l-2.651,7.269a1.559,1.559,0,0,0,1.418,2.187,1.569,1.569,0,0,0,.565-.106l7.64-2.326a.852.852,0,0,0,.214-.1l.013.013.069-.069a.882.882,0,0,0,.082-.083l10.614-10.613a5.036,5.036,0,0,0-7.123-7.122m-.2,2.631,4.7,4.7-8.134,8.134-4.7-4.7Zm-11.6,15.97,2.372-6.5,4.432,4.432Zm17.714-12.691-.2.2-4.7-4.7.205-.2a3.321,3.321,0,0,1,4.7,4.7" transform="translate(450.575 -132.62)" fill="#ffc300"/>
  </g>
</svg>
