<svg xmlns="http://www.w3.org/2000/svg" width="54" height="53.879" viewBox="0 0 54 53.879">
  <g id="Group_56466" data-name="Group 56466" transform="translate(-584 -194)">
    <g id="Group_56453" data-name="Group 56453" transform="translate(-38 -27)">
      <rect id="Rectangle_612" data-name="Rectangle 612" width="53.598" height="53.598" rx="14" transform="translate(622.402 221.142)" fill="rgba(93,125,255,0.3)"/>
      <g id="Group_56429" data-name="Group 56429" transform="translate(622 221)">
        <path id="Path_60546" data-name="Path 60546" d="M46.676,226H19.336C11.449,225.892,6.2,231.129,6,239.378V266.5a12.926,12.926,0,0,0,13.324,13.376H46.853a13.259,13.259,0,0,0,9.472-3.6A13.337,13.337,0,0,0,60,266.5V239.378A13.366,13.366,0,0,0,46.676,226m11.67,40.5a11.73,11.73,0,0,1-3.186,8.6,11.482,11.482,0,0,1-8.475,3.116H19.325A11.326,11.326,0,0,1,7.654,266.5V239.4c.136-5.7,3.21-11.744,11.422-11.744l.248,0H46.676a11.71,11.71,0,0,1,11.67,11.722Z" transform="translate(-6 -226)" fill="#5d7dff"/>
      </g>
    </g>
    <path id="Path_60547" data-name="Path 60547" d="M48.761,268.268v-8.077h-.012a1.5,1.5,0,0,0-.964-1.23L37.3,254.9a1.641,1.641,0,0,0-1.248.028L26,259.348h0a1.471,1.471,0,0,0,.122,2.764l3.767,1.347-.05,5.2a.857.857,0,0,0,.349.7c.083.062,2.087,1.5,6.688,1.545h.184a13.52,13.52,0,0,0,6.474-1.378.86.86,0,0,0,.422-.731l.054-5.631,3.036-1.15v6.273a2.787,2.787,0,1,0,1.715-.017m-6.516-.024a13.377,13.377,0,0,1-5.352.941,12.472,12.472,0,0,1-5.334-1.013l.039-4.1,4.613,1.65a1.654,1.654,0,0,0,.524.085,1.571,1.571,0,0,0,.591-.114l4.961-1.879Zm-5.515-4.158-9.506-3.4,9.49-4.174,9.891,3.833ZM47.927,272A1.074,1.074,0,1,1,49,270.929,1.075,1.075,0,0,1,47.927,272" transform="translate(573.097 -43.452)" fill="#5d7dff"/>
  </g>
</svg>
