<svg xmlns="http://www.w3.org/2000/svg" width="54" height="53.879" viewBox="0 0 54 53.879">
  <g id="Group_56469" data-name="Group 56469" transform="translate(-584 -382)">
    <g id="Group_56461" data-name="Group 56461" transform="translate(-38 -71)">
      <path id="Rectangle_612" data-name="Rectangle 612" d="M10,0H38.625a12,12,0,0,1,12,12V41.625a9,9,0,0,1-9,9H10a10,10,0,0,1-10-10V10A10,10,0,0,1,10,0Z" transform="translate(623.688 454.471)" fill="rgba(232,126,212,0.3)"/>
      <g id="Group_56433" data-name="Group 56433" transform="translate(622 453)">
        <g id="Group_56425" data-name="Group 56425" transform="translate(0 0)">
          <path id="Path_60541" data-name="Path 60541" d="M40.676,2H13.336l-.254,0C5.319,2,.2,7.218,0,15.378V42.5A12.926,12.926,0,0,0,13.324,55.878H40.853a13.259,13.259,0,0,0,9.472-3.6A13.337,13.337,0,0,0,54,42.5V15.378A13.366,13.366,0,0,0,40.676,2m11.67,40.5a11.73,11.73,0,0,1-3.186,8.6,11.466,11.466,0,0,1-8.475,3.116H13.325A11.326,11.326,0,0,1,1.654,42.5V15.4C1.79,9.7,4.864,3.654,13.076,3.654l.248,0H40.676a11.71,11.71,0,0,1,11.67,11.722Z" transform="translate(0 -2)" fill="#e87ed4"/>
        </g>
      </g>
    </g>
    <path id="Path_60542" data-name="Path 60542" d="M45.6,28.849a4.739,4.739,0,0,0-7.29-4,.852.852,0,0,0-.241-.145,8.155,8.155,0,0,0-2.933-.538,7.409,7.409,0,0,0-7.665,7.1v.051a33.167,33.167,0,0,1,.039,4.994,4.532,4.532,0,0,1-.622,1.11c-.528.773-1.251,1.831-.5,3.112.772,1.315,2.525,2.267,4.937,2.725v.01a3.818,3.818,0,0,0,7.636,0,.829.829,0,0,0-.015-.147,8.32,8.32,0,0,0,4.825-2.5c.966-1.255.155-2.429-.381-3.206a4.669,4.669,0,0,1-.63-1.1,14.6,14.6,0,0,1-.048-3.042c0-.017,0-.033,0-.051a4.754,4.754,0,0,0,2.89-4.368M35.147,45.369a2.1,2.1,0,0,1-2.08-1.878c.138.012.275.024.416.033.4.025.818.038,1.242.038a21.029,21.029,0,0,0,2.51-.152,2.1,2.1,0,0,1-2.088,1.959m5.984-8.535a6.019,6.019,0,0,0,.851,1.555c.606.877.584.989.434,1.185-1.168,1.518-4.959,2.48-8.824,2.237-2.855-.179-5.046-1-5.718-2.148-.171-.292-.106-.483.436-1.276a5.967,5.967,0,0,0,.84-1.556,28.486,28.486,0,0,0,.041-5.589,5.7,5.7,0,0,1,5.95-5.365,6.493,6.493,0,0,1,1.823.26A4.742,4.742,0,0,0,40.854,33.6c.046,0,.09-.006.136-.007a10.417,10.417,0,0,0,.141,3.244m-.277-4.953a3.033,3.033,0,1,1,3.032-3.032,3.036,3.036,0,0,1-3.032,3.032" transform="translate(575.164 373.347)" fill="#e87ed4"/>
  </g>
</svg>
