<svg xmlns="http://www.w3.org/2000/svg" width="54" height="53.879" viewBox="0 0 54 53.879">
  <g id="Group_56468" data-name="Group 56468" transform="translate(-584 -288)">
    <g id="Group_56457" data-name="Group 56457" transform="translate(-38 -49)">
      <path id="Rectangle_10449" data-name="Rectangle 10449" d="M7,0H44.625a7,7,0,0,1,7,7V39.625a11,11,0,0,1-11,11H7a7,7,0,0,1-7-7V7A7,7,0,0,1,7,0Z" transform="translate(623.125 338.629)" fill="rgba(182,214,96,0.3)"/>
      <g id="Group_56432" data-name="Group 56432" transform="translate(622 337)">
        <g id="Group_56426" data-name="Group 56426" transform="translate(0 0)">
          <path id="Path_60535" data-name="Path 60535" d="M160.676,0h-27.34l-.254,0C125.319,0,120.2,5.218,120,13.378V40.5a12.926,12.926,0,0,0,13.324,13.376h27.529a13.259,13.259,0,0,0,9.472-3.6A13.337,13.337,0,0,0,174,40.5V13.378A13.366,13.366,0,0,0,160.676,0m11.67,40.5a11.73,11.73,0,0,1-3.186,8.6,11.493,11.493,0,0,1-8.475,3.116h-27.36A11.326,11.326,0,0,1,121.654,40.5V13.4c.136-5.7,3.21-11.744,11.422-11.744l.248,0h27.352a11.71,11.71,0,0,1,11.67,11.722Z" transform="translate(-120)" fill="#98cc51"/>
        </g>
      </g>
    </g>
    <path id="Path_60533" data-name="Path 60533" d="M161.075,20.618a9.342,9.342,0,0,0-10.391,15.456,4.293,4.293,0,0,1,1.711,3.635c-.022.616-.015,1.242-.007,1.846l.005.458a4.466,4.466,0,0,0,.063.734,2.225,2.225,0,0,0,2.3,1.926h2.951l.691,0a2.213,2.213,0,0,0,2.25-2.243l0-.413c0-.741.009-1.482,0-2.222a4.634,4.634,0,0,1,1.821-3.847,8.818,8.818,0,0,0,3.253-8.7,9.176,9.176,0,0,0-4.648-6.629M159.04,38.392c-.038.173-.064.349-.091.536l-.013.084h-4.817c0-.037-.009-.073-.013-.11-.027-.219-.054-.437-.1-.65a5.922,5.922,0,0,0-2.245-3.533,7.272,7.272,0,0,1-2.648-4.182,7.607,7.607,0,1,1,14.853-3.285A7.152,7.152,0,0,1,161.49,34.5a7.072,7.072,0,0,0-2.449,3.894m-.133,4.163a.343.343,0,0,1-.376.375c-1.231.015-2.539.016-4,0a.339.339,0,0,1-.357-.366c-.024-.463-.019-.92-.014-1.4,0-.13,0-.26,0-.39h4.748c0,.132,0,.263,0,.393,0,.479.007.931-.009,1.389" transform="translate(454.474 282.875)" fill="#98cc51"/>
    <path id="Path_60534" data-name="Path 60534" d="M172.9,33.98a1,1,0,0,0,.144.01.758.758,0,0,0,.518-.185,1.242,1.242,0,0,0,.317-.989V32.81a5.754,5.754,0,0,0-.57-2.275,5.976,5.976,0,0,0-5.44-3.5.818.818,0,0,0-.907.631.853.853,0,0,0,.112.736.989.989,0,0,0,.777.359,4.4,4.4,0,0,1,4.045,2.959,5.808,5.808,0,0,1,.216,1.127c.014.11.027.22.043.33a.829.829,0,0,0,.744.8" transform="translate(443.198 278.545)" fill="#98cc51"/>
  </g>
</svg>
