<svg xmlns="http://www.w3.org/2000/svg" width="54.014" height="53.88" viewBox="0 0 54.014 53.88">
  <g id="Group_56463" data-name="Group 56463" transform="translate(-912 -308.004)">
    <g id="Group_56459" data-name="Group 56459" transform="translate(3.688 -29)">
      <rect id="Rectangle_10451" data-name="Rectangle 10451" width="53.773" height="53.773" rx="14" transform="translate(908.554 337.004)" fill="rgba(137,106,246,0.3)"/>
      <g id="Group_56428" data-name="Group 56428" transform="translate(908.313 337.004)">
        <path id="Path_60540" data-name="Path 60540" d="M164.676,113h-27.34c-7.88-.125-13.139,5.128-13.336,13.376V153.5a12.926,12.926,0,0,0,13.324,13.376h27.529A12.5,12.5,0,0,0,178,153.5V126.378A13.366,13.366,0,0,0,164.676,113m11.67,40.5a11.73,11.73,0,0,1-3.186,8.6,11.462,11.462,0,0,1-8.3,3.117H137.325A11.326,11.326,0,0,1,125.654,153.5V126.4c.136-5.7,3.21-11.744,11.422-11.744l.248,0h27.352a11.71,11.71,0,0,1,11.67,11.722Z" transform="translate(-124 -112.999)" fill="#896af6"/>
      </g>
    </g>
    <path id="Path_60536" data-name="Path 60536" d="M169.035,136.227a.858.858,0,0,0,0-1.715H149.15a.858.858,0,1,0,0,1.715h.407v13.227h-.407a.858.858,0,1,0,0,1.715h9.085v2.266a2.869,2.869,0,1,0,1.715,0V151.17h9.085a.858.858,0,0,0,0-1.715h-.349V136.227Zm-9.943,21.1a1.154,1.154,0,1,1,1.154-1.154,1.155,1.155,0,0,1-1.154,1.154m7.878-7.873h-15.7V136.227h15.7Z" transform="translate(779.915 188.488)" fill="#896af6"/>
    <path id="Path_60537" data-name="Path 60537" d="M160,144.67h6.609a.858.858,0,0,0,0-1.715H160a.858.858,0,0,0,0,1.715" transform="translate(773.716 183.666)" fill="#896af6"/>
    <path id="Path_60538" data-name="Path 60538" d="M160,153.113h10.633a.858.858,0,1,0,0-1.715H160a.858.858,0,0,0,0,1.715" transform="translate(773.716 178.844)" fill="#896af6"/>
    <path id="Path_60539" data-name="Path 60539" d="M170.636,159.84H160a.858.858,0,0,0,0,1.715h10.633a.858.858,0,1,0,0-1.715" transform="translate(773.716 174.022)" fill="#896af6"/>
  </g>
</svg>
