<svg xmlns="http://www.w3.org/2000/svg" width="54" height="53.879" viewBox="0 0 54 53.879">
  <g id="Group_56449" data-name="Group 56449" transform="translate(-907 -105)">
    <rect id="Rectangle_10450" data-name="Rectangle 10450" width="52.005" height="52.005" rx="13" transform="translate(907.997 105.937)" fill="rgba(66,227,240,0.2)"/>
    <g id="Group_56431" data-name="Group 56431" transform="translate(907 105)">
      <path id="Path_60532" data-name="Path 60532" d="M281.334,225.867h-27.34c-7.88-.12-13.138,5.128-13.336,13.376v27.123a12.927,12.927,0,0,0,13.325,13.376h27.528a12.5,12.5,0,0,0,13.147-13.378V239.244a13.366,13.366,0,0,0-13.324-13.376M293,266.37a11.725,11.725,0,0,1-3.186,8.6,11.593,11.593,0,0,1-8.475,3.116h-27.36a11.326,11.326,0,0,1-11.671-11.722v-27.1c.137-5.7,3.211-11.744,11.423-11.744l.248,0h27.351A11.709,11.709,0,0,1,293,239.244Z" transform="translate(-240.658 -225.865)" fill="#42e3f0"/>
    </g>
    <path id="Path_60530" data-name="Path 60530" d="M282.809,249.051H268.041a4.2,4.2,0,0,0-4.195,4.195v10.48a4.2,4.2,0,0,0,4.195,4.194h3.619v2.739h-2.5a.858.858,0,1,0,0,1.715h12.437a.858.858,0,1,0,0-1.715h-2.4V267.92h3.619A4.2,4.2,0,0,0,287,263.726v-10.48a4.2,4.2,0,0,0-4.195-4.195m-5.334,21.394h-4.1v-2.1h4.1Zm7.813-6.719a2.482,2.482,0,0,1-2.479,2.479H268.041a2.482,2.482,0,0,1-2.479-2.479v-10.48a2.482,2.482,0,0,1,2.479-2.48h14.769a2.482,2.482,0,0,1,2.479,2.48Z" transform="translate(657.669 -128.773)" fill="#42e3f0"/>
    <path id="Path_60531" data-name="Path 60531" d="M289.592,263.8l-3.852-2.46a1.884,1.884,0,0,0-2.608.607,1.944,1.944,0,0,0-.286,1V267.8a1.851,1.851,0,0,0,2.859,1.575l3.8-2.426a1.889,1.889,0,0,0,.615-2.545,1.808,1.808,0,0,0-.531-.6m-1.009,1.7-3.779,2.412a.371.371,0,0,1-.084.042.165.165,0,0,1-.158-.158v-4.849a.255.255,0,0,1,.02-.081.206.206,0,0,1,.163-.1.132.132,0,0,1,.071.021l3.769,2.4a.166.166,0,0,0,.026.019h0l.027.047a.184.184,0,0,1-.054.244" transform="translate(647.246 -135.626)" fill="#42e3f0"/>
  </g>
</svg>
